<svg version="1.2" xmlns="http://www.w3.org/2000/svg" viewBox="0 0 22 19" width="22" height="19"><style>.a{fill:#c1c1c1}</style><path class="a" d="m21.1 14.2h-15.8v-13.3c0-0.5-0.4-0.9-0.9-0.9-0.5 0-0.8 0.4-0.8 0.9v13.3h-2.7c-0.5 0-0.9 0.4-0.9 0.8 0 0.5 0.4 0.9 0.9 0.9h2.7v2.2c0 0.5 0.3 0.9 0.8 0.9 0.5 0 0.9-0.4 0.9-0.9v-2.2h15.8c0.5 0 0.9-0.4 0.9-0.9 0-0.4-0.4-0.8-0.9-0.8zm-13.7-1.5c0.6 0 1.1-0.5 1.1-1.1q0-0.4-0.2-0.7l2.1-5 2.1 4.4q-0.2 0.2-0.2 0.5c0 0.7 0.5 1.2 1.2 1.2 0.6 0 1.1-0.5 1.1-1.2q0-0.2-0.1-0.4l0.8-1q0.1 0 0.2 0 0.1 0 0.2 0l0.7 1q-0.1 0.2-0.1 0.4c0 0.7 0.5 1.2 1.2 1.2 0.6 0 1.1-0.5 1.1-1.2q0-0.3-0.2-0.6l1.6-3.1c0.6-0.1 1-0.5 1-1.1 0-0.7-0.5-1.2-1.1-1.2-0.6 0-1.2 0.5-1.2 1.2q0.1 0.3 0.2 0.6l-1.5 3.1q0 0 0 0l-0.8-1q0.1-0.2 0.1-0.5c0-0.6-0.6-1.1-1.2-1.1-0.6 0-1.1 0.5-1.1 1.1q0 0.3 0 0.4l-0.8 1.1q0 0-0.1 0l-2.2-4.5q0.2-0.3 0.2-0.7c0-0.6-0.5-1.1-1.1-1.1-0.7 0-1.2 0.5-1.2 1.1q0 0.4 0.2 0.7l-2.2 5.3c-0.5 0-1 0.5-1 1.1 0 0.6 0.6 1.1 1.2 1.1z"/></svg>