<svg version="1.2" xmlns="http://www.w3.org/2000/svg" viewBox="0 0 19 19" width="19" height="19"><style>.a{fill:#c1c1c1}</style><path fill-rule="evenodd" class="a" d="m10.5 0l-5 5.8-2 2 0.5 0.5c1.2 1.2 0.9 2.8 0.7 3.2-2.1 2.1-3.1 2.3-3.2 2.3h-0.2l-0.3 0.2c-1.1 1.1-1.1 2.2-0.9 2.9 0.2 0.8 0.6 1.2 0.7 1.3 0.1 0.1 0.8 0.8 2 0.8q1.2 0 2.2-1l0.2-0.3v-0.2c0-0.2 0.2-1.1 2.3-3.3 0.2 0 0.6-0.2 1.1-0.2q1.1 0 2.1 1l0.5 0.5 2-2.1 5.8-4.9zm-3.7 13.1l-0.1 0.1c-2.2 2.1-2.7 3.3-2.8 4q-0.6 0.5-1.1 0.5c-0.7 0-1.1-0.5-1.1-0.5 0 0-0.3-0.2-0.4-0.7q-0.2-0.7 0.5-1.4c0.6-0.2 1.8-0.7 3.9-2.8l0.1-0.1 0.1-0.1c0-0.1 0.2-0.8 0.2-1.7l2.3 2.3c-0.9 0-1.6 0.4-1.6 0.4zm4.3 0.5l-5.8-5.8 1.1-1.1 5.8 5.8zm2-1.9l-5.9-5.9 3.3-3.9 0.9 0.9-2.8 3.1 1 0.8 2.7-3 0.9 0.8-1.2 1.3 0.9 0.9 1.2-1.2 2.9 2.9z"/></svg>