<svg version="1.2" xmlns="http://www.w3.org/2000/svg" viewBox="0 0 17 15" width="17" height="15"><style>.a{fill:#c1c1c1}</style><path fill-rule="evenodd" class="a" d="m14.5 2h-11c-0.3 0-0.5 0.2-0.5 0.5v7c0 0.3 0.2 0.5 0.5 0.5h11c0.3 0 0.5-0.2 0.5-0.5v-7c0-0.3-0.2-0.5-0.5-0.5zm0 7.5h-11v-7h11zm1-9.5h-13c-0.8 0-1.5 0.7-1.5 1.5v10c0 0.8 0.7 1.5 1.5 1.5h5v0.6l-3.1 0.4c-0.2 0.1-0.4 0.3-0.4 0.5 0 0.3 0.2 0.5 0.5 0.5h9c0.3 0 0.5-0.2 0.5-0.5 0-0.2-0.2-0.4-0.4-0.5l-3.1-0.4v-0.6h5c0.8 0 1.5-0.7 1.5-1.5v-10c0-0.8-0.7-1.5-1.5-1.5zm0.5 11.5c0 0.3-0.2 0.5-0.5 0.5h-13c-0.3 0-0.5-0.2-0.5-0.5v-10c0-0.3 0.2-0.5 0.5-0.5h13c0.3 0 0.5 0.2 0.5 0.5z"/></svg>