<svg version="1.2" xmlns="http://www.w3.org/2000/svg" viewBox="0 0 15 15" width="15" height="15"><style>.a{fill:#c1c1c1}</style><path fill-rule="evenodd" class="a" d="m7.5 0c-4.2 0-7.5 3.4-7.5 7.5 0 4.2 3.4 7.5 7.5 7.5 4.2 0 7.5-3.4 7.5-7.5 0-4.2-3.4-7.5-7.5-7.5zm0 13.8c-3.4 0-6.2-2.8-6.3-6.3 0-3.4 2.8-6.3 6.3-6.3 3.4 0 6.3 2.8 6.3 6.3 0 3.4-2.8 6.3-6.3 6.3zm1.1-3v-5.6h-2.1-0.8v1.2h0.8v4.4h-0.8v1.2h0.8 2.2l0.6-0.1v-1.1zm-1.1-6.5c0.7 0 1.2-0.4 1.2-1-0.1-0.6-0.5-1.1-1.2-1.1-0.6 0-1.1 0.5-1.1 1.1 0 0.6 0.5 1.1 1.1 1z"/></svg>