<svg version="1.2" xmlns="http://www.w3.org/2000/svg" viewBox="0 0 20 17" width="20" height="17"><style>.a{fill:#c1c1c1}</style><path fill-rule="evenodd" class="a" d="m10 14.9l3.5-5.1c2-2.5 2-6.3 0-8.3-1.9-2-5.1-2-7 0-2 2-2 5.7 0 8.3zm-2.9-12.7c1.6-1.7 4.2-1.7 5.8 0 1.6 1.7 1.5 4.7 0 6.9l-2.9 4.3-2.9-4.3c-1.6-2.2-1.6-5.2 0-6.9zm2.9 5.9c1.5 0 2.7-1.3 2.7-2.9 0-1.5-1.2-2.8-2.7-2.8-1.5 0-2.8 1.3-2.8 2.8 0 1.6 1.3 2.9 2.8 2.9zm0-4.8c1 0 1.8 0.9 1.8 1.9 0 1.1-0.8 1.9-1.8 1.9-1 0-1.9-0.8-1.9-1.9 0-1 0.9-1.9 1.9-1.9zm7.7 9h-4.6c-0.2 0-0.4 0.2-0.4 0.5 0 0.2 0.2 0.4 0.4 0.4h4.6c0.7 0 1.4 0.7 1.4 1.5 0 0.7-0.7 1.4-1.4 1.4h-15.5c-0.7 0-1.3-0.7-1.3-1.4 0-0.8 0.6-1.5 1.3-1.5h4.6c0.2 0 0.4-0.2 0.4-0.4 0-0.3-0.2-0.5-0.4-0.5h-4.6c-1.2 0-2.2 1.1-2.2 2.4 0 1.3 1 2.3 2.2 2.3h15.5c1.2 0 2.3-1 2.3-2.3 0-1.3-1.1-2.4-2.3-2.4z"/></svg>