<svg version="1.2" xmlns="http://www.w3.org/2000/svg" viewBox="0 0 18 20" width="18" height="20"><style>.a{fill:#c1c1c1}</style><path fill-rule="evenodd" class="a" d="m18 0v20h-10.1c-0.2 0-0.4-0.2-0.4-0.4 0-0.3 0.2-0.4 0.4-0.4h9.3v-18.4h-9.3c-0.3 0-0.5-0.1-0.5-0.4 0-0.2 0.2-0.4 0.5-0.4zm-10.5 10.4h-7.1c-0.3 0-0.4-0.2-0.4-0.4 0-0.2 0.1-0.4 0.4-0.4h7.1v-3.2c0-0.5 0.4-0.7 0.7-0.7 0.1 0 0.3 0 0.5 0.2l4.1 3.4c0.2 0.2 0.3 0.4 0.3 0.7 0 0.3-0.1 0.5-0.3 0.7l-4.1 3.4c-0.2 0.2-0.4 0.2-0.5 0.2-0.3 0-0.7-0.2-0.7-0.7v-3.2zm0.9 2.9l3.8-3.2q0.1-0.1 0.1-0.1 0 0-0.1-0.1l-3.8-3.2z"/></svg>