<svg version="1.2" xmlns="http://www.w3.org/2000/svg" viewBox="0 0 18 18" width="18" height="18"><style>.a{fill:#c1c1c1}</style><path fill-rule="evenodd" class="a" d="m9 0c-5 0-9 4-9 9 0 5 4 9 9 9 0.8 0 1.5-0.7 1.5-1.5 0-0.4-0.1-0.7-0.4-1-0.2-0.3-0.4-0.6-0.4-1 0-0.8 0.7-1.5 1.5-1.5h1.8c2.8 0 5-2.2 5-5 0-4.4-4-8-9-8zm-5.5 9c-0.8 0-1.5-0.7-1.5-1.5 0-0.8 0.7-1.5 1.5-1.5 0.8 0 1.5 0.7 1.5 1.5 0 0.8-0.7 1.5-1.5 1.5zm3-4c-0.8 0-1.5-0.7-1.5-1.5 0-0.8 0.7-1.5 1.5-1.5 0.8 0 1.5 0.7 1.5 1.5 0 0.8-0.7 1.5-1.5 1.5zm5 0c-0.8 0-1.5-0.7-1.5-1.5 0-0.8 0.7-1.5 1.5-1.5 0.8 0 1.5 0.7 1.5 1.5 0 0.8-0.7 1.5-1.5 1.5zm3 4c-0.8 0-1.5-0.7-1.5-1.5 0-0.8 0.7-1.5 1.5-1.5 0.8 0 1.5 0.7 1.5 1.5 0 0.8-0.7 1.5-1.5 1.5z"/></svg>