<svg version="1.2" xmlns="http://www.w3.org/2000/svg" viewBox="0 0 15 15" width="15" height="15"><style>.a{fill:#c1c1c1}</style><path fill-rule="evenodd" class="a" d="m0 7.5c0-4.1 3.4-7.5 7.5-7.5 4.1 0 7.5 3.4 7.5 7.5 0 4.1-3.4 7.5-7.5 7.5-4.1 0-7.5-3.4-7.5-7.5zm1.1 0c0 3.5 2.9 6.4 6.4 6.4 3.5 0 6.4-2.9 6.4-6.4 0-3.5-2.9-6.4-6.4-6.4-3.5 0-6.4 2.9-6.4 6.4zm3.5-1.5c-0.3-0.3-0.3-0.9 0-1.2q0.3-0.2 0.6-0.2 0.4 0 0.6 0.2c0.4 0.3 0.4 0.9 0 1.2q-0.2 0.3-0.6 0.3-0.3 0-0.6-0.3zm4.3 0c-0.3-0.3-0.3-0.9 0-1.2q0.3-0.2 0.6-0.2 0.4 0 0.6 0.2c0.4 0.3 0.4 0.9 0 1.2q-0.2 0.3-0.6 0.3-0.3 0-0.6-0.3zm-4.9 3.2l1-0.2v-0.1c0 0.1 0.4 1.3 2.4 1.3 2 0 2.6-1.3 2.6-1.3 0.1-0.3 0.4-0.4 0.7-0.3 0.3 0.1 0.4 0.4 0.3 0.7 0 0.1-0.8 1.9-3.6 1.9-2.9 0-3.4-1.9-3.4-2z"/></svg>