<svg version="1.2" xmlns="http://www.w3.org/2000/svg" viewBox="0 0 16 14" width="16" height="14"><style>.a{fill:#c1c1c1}</style><path fill-rule="evenodd" class="a" d="m15.5 0.5q-0.4-0.5-1-0.5h-13q-0.6 0-1 0.5-0.5 0.4-0.5 1.1v10.8q0 0.7 0.5 1.1 0.4 0.5 1 0.5h13q0.6 0 1-0.5 0.5-0.4 0.5-1.1v-10.8q0-0.7-0.5-1.1zm-10.6 11.9q0 0.1-0.1 0.2-0.1 0.1-0.2 0.1h-3.1q-0.1 0-0.2-0.1-0.1-0.1-0.1-0.2v-1.9q0-0.1 0.1-0.2 0.1-0.1 0.2-0.1h3.1q0.2 0 0.2 0.1 0.1 0.1 0.1 0.2zm0-3.8q0 0.1-0.1 0.2-0.1 0.1-0.2 0.1h-3.1q-0.1 0-0.2-0.1-0.1-0.1-0.1-0.2v-1.9q0-0.2 0.1-0.3 0.1 0 0.2 0h3.1q0.1 0 0.2 0 0.1 0.1 0.1 0.3zm0-3.8q0 0.1-0.1 0.2-0.1 0.1-0.2 0.1h-3.1q-0.1 0-0.2-0.1-0.1-0.1-0.1-0.2v-2q0-0.1 0.1-0.2 0.1-0.1 0.2-0.1h3.1q0.1 0 0.2 0.1 0.1 0.1 0.1 0.2zm4.9 7.7q0 0.1 0 0.2-0.1 0.1-0.3 0.1h-3q-0.2 0-0.3-0.1 0-0.1 0-0.2v-1.9q0-0.2 0-0.3 0.1 0 0.3 0h3q0.2 0 0.3 0 0 0.1 0 0.3v1.9zm0-3.8q0 0.1 0 0.2-0.1 0.1-0.3 0.1h-3q-0.2 0-0.3-0.1 0-0.1 0-0.2v-1.9q0-0.2 0-0.3 0.1-0.1 0.3-0.1h3q0.2 0 0.3 0.1 0 0.1 0 0.3v1.9zm0-3.9q0 0.2 0 0.3-0.1 0.1-0.3 0.1h-3q-0.2 0-0.3-0.1 0-0.1 0-0.3v-1.9q0-0.1 0-0.2 0.1-0.1 0.3-0.1h3q0.2 0 0.3 0.1 0 0.1 0 0.2v1.9zm5 7.7q0 0.1-0.1 0.2-0.1 0.1-0.2 0.1h-3.1q-0.1 0-0.2-0.1-0.1-0.1-0.1-0.2v-1.9q0-0.2 0.1-0.3 0.1 0 0.2 0h3.1q0.1 0 0.2 0 0.1 0.1 0.1 0.3zm0-3.8q0 0.1-0.1 0.2-0.1 0.1-0.2 0.1h-3.1q-0.1 0-0.2-0.1-0.1-0.1-0.1-0.2v-2q0-0.1 0.1-0.2 0.1-0.1 0.2-0.1h3.1q0.1 0 0.2 0.1 0.1 0.1 0.1 0.2zm0-3.8q0 0.2-0.1 0.3-0.1 0-0.2 0h-3.1q-0.1 0-0.2 0-0.1-0.1-0.1-0.3v-1.9q0-0.1 0.1-0.2 0.1-0.1 0.2-0.1h3.1q0.1 0 0.2 0.1 0.1 0.1 0.1 0.2z"/></svg>