<svg version="1.2" xmlns="http://www.w3.org/2000/svg" viewBox="0 0 17 15" width="17" height="15"><style>.a{fill:#c1c1c1}</style><path class="a" d="m4.9 4.4q0.1 0 0.2-0.1l3.1-3.2v11.1c0 0.2 0.1 0.3 0.3 0.3 0.2 0 0.3-0.1 0.3-0.3v-11.1l3.1 3.2q0.1 0.1 0.2 0.1 0.2 0 0.3-0.1c0.1-0.1 0.1-0.3 0-0.5l-3.7-3.7q0-0.1-0.1-0.1-0.1 0-0.2 0-0.1 0-0.1 0.1l-3.7 3.7c-0.1 0.2-0.1 0.4 0 0.5q0.1 0.1 0.3 0.1zm11.8 6.2c-0.2 0-0.3 0.2-0.3 0.3v3.5h-15.8v-3.5c0-0.1-0.1-0.3-0.3-0.3-0.2 0-0.3 0.2-0.3 0.3v4.1h17v-4.1c0-0.1-0.1-0.3-0.3-0.3z"/></svg>