<svg version="1.2" xmlns="http://www.w3.org/2000/svg" viewBox="0 0 15 13" width="15" height="13"><style>.a{fill:#c1c1c1}</style><path fill-rule="evenodd" class="a" d="m14.9 11.7l-6.5-11.2c-0.2-0.3-0.5-0.5-0.8-0.5h-0.1c-0.3 0-0.6 0.2-0.8 0.4l-6.6 11.2c-0.1 0.3-0.1 0.6 0 0.9 0.2 0.3 0.5 0.5 0.9 0.5h13c0.4 0 0.7-0.2 0.9-0.4 0.1-0.3 0.2-0.7 0-0.9zm-13.9 0.4l6.5-11.2 6.5 11.2zm6.6-2.9c-0.6 0-1 0.4-1 0.9 0 0.5 0.4 0.9 1 0.9 0.6 0 0.9-0.4 0.9-0.9 0-0.5-0.3-0.9-0.9-0.9zm-0.6-0.5h1.2l0.2-4.6h-1.6z"/></svg>