<svg version="1.2" xmlns="http://www.w3.org/2000/svg" width="22" height="19"><path d="M21.1 14.2H5.3V.9c0-.5-.4-.9-.9-.9s-.8.4-.8.9v13.3H.9c-.5 0-.9.4-.9.8 0 .5.4.9.9.9h2.7v2.2c0 .5.3.9.8.9s.9-.4.9-.9v-2.2h15.8c.5 0 .9-.4.9-.9 0-.4-.4-.8-.9-.8zM7.4 12.7c.6 0 1.1-.5 1.1-1.1q0-.4-.2-.7l2.1-5 2.1 4.4q-.2.2-.2.5c0 .7.5 1.2 1.2 1.2.6 0 1.1-.5 1.1-1.2q0-.2-.1-.4l.8-1h.4l.7 1q-.1.2-.1.4c0 .7.5 1.2 1.2 1.2.6 0 1.1-.5 1.1-1.2q0-.3-.2-.6L20 7.1c.6-.1 1-.5 1-1.1 0-.7-.5-1.2-1.1-1.2-.6 0-1.2.5-1.2 1.2l.2.6-1.5 3.1-.8-1q.1-.2.1-.5c0-.6-.6-1.1-1.2-1.1s-1.1.5-1.1 1.1v.4l-.8 1.1h-.1l-2.2-4.5q.2-.3.2-.7c0-.6-.5-1.1-1.1-1.1-.7 0-1.2.5-1.2 1.1q0 .4.2.7l-2.2 5.3c-.5 0-1 .5-1 1.1 0 .6.6 1.1 1.2 1.1z" fill="#c1c1c1"/></svg>