<svg version="1.2" xmlns="http://www.w3.org/2000/svg" width="19" height="19"><path fill-rule="evenodd" d="M10.5 0l-5 5.8-2 2 .5.5c1.2 1.2.9 2.8.7 3.2-2.1 2.1-3.1 2.3-3.2 2.3h-.2L1 14c-1.1 1.1-1.1 2.2-.9 2.9.2.8.6 1.2.7 1.3.1.1.8.8 2 .8Q4 19 5 18l.2-.3v-.2c0-.2.2-1.1 2.3-3.3.2 0 .6-.2 1.1-.2q1.1 0 2.1 1l.5.5 2-2.1L19 8.5zM6.8 13.1l-.1.1c-2.2 2.1-2.7 3.3-2.8 4q-.6.5-1.1.5c-.7 0-1.1-.5-1.1-.5s-.3-.2-.4-.7q-.2-.7.5-1.4c.6-.2 1.8-.7 3.9-2.8l.1-.1.1-.1c0-.1.2-.8.2-1.7l2.3 2.3c-.9 0-1.6.4-1.6.4zm4.3.5L5.3 7.8l1.1-1.1 5.8 5.8zm2-1.9L7.2 5.8l3.3-3.9.9.9-2.8 3.1 1 .8 2.7-3 .9.8L12 5.8l.9.9 1.2-1.2L17 8.4z" fill="#c1c1c1"/></svg>