<svg version="1.2" xmlns="http://www.w3.org/2000/svg" viewBox="0 0 15 16" width="15" height="16"><style>.a{fill:#c1c1c1}</style><path fill-rule="evenodd" class="a" d="m14.8 6.2l-0.9 0.9-2.4-2.5 0.9-0.9c0.2-0.3 0.7-0.3 0.9-0.1l1.5 1.7c0.3 0.2 0.2 0.6 0 0.9zm-3.7-1.2l2.4 2.5-5.7 5.9c0 0.1-0.1 0.1-0.2 0.2q0 0 0 0l-3 1q-0.2 0-0.2-0.1-0.1-0.1-0.1-0.2l1-3.1q0 0 0 0c0-0.2 0.1-0.2 0.1-0.3l1.1-1.1h-3.6c-0.2 0-0.3-0.1-0.3-0.2 0-0.2 0.1-0.3 0.3-0.3h4.1zm-4 8.2l-1.5-1.5-0.4 1.3 0.6 0.6zm4-7.2c-0.1-0.1-0.2-0.1-0.3 0l-4.5 4.6c-0.1 0.1-0.1 0.2 0 0.3 0.1 0.1 0.2 0.1 0.3 0l4.5-4.6c0.1-0.1 0.1-0.2 0-0.3zm-0.3 8.8c0 0.1-0.1 0.3-0.3 0.3h-5.2l-0.5 0.1q-0.2 0.1-0.3 0.1-0.3 0-0.6-0.2h-2.7c-0.2 0-0.3-0.2-0.3-0.3v-12.6c0-0.2 0.1-0.3 0.3-0.3h1.1v0.5c0 0.1 0.1 0.3 0.3 0.3 0.1 0 0.3-0.2 0.3-0.3v-0.5h1.6v0.5c0 0.1 0.2 0.3 0.3 0.3 0.2 0 0.3-0.2 0.3-0.3v-0.5h1.4v0.5c0 0.1 0.2 0.3 0.3 0.3 0.2 0 0.3-0.2 0.3-0.3v-0.5h1.6v0.5c0 0.1 0.1 0.3 0.3 0.3 0.2 0 0.3-0.2 0.3-0.3v-0.5h1.2c0.2 0 0.3 0.1 0.3 0.3v2.1l0.3-0.3 0.6-0.6v-1.2c0-0.7-0.5-1.2-1.2-1.2h-1.2v-0.7c0-0.2-0.1-0.3-0.3-0.3-0.2 0-0.3 0.1-0.3 0.3v0.7h-1.6v-0.7c0-0.2-0.1-0.3-0.3-0.3-0.1 0-0.3 0.1-0.3 0.3v0.7h-1.4v-0.7c0-0.2-0.1-0.3-0.3-0.3-0.1 0-0.3 0.1-0.3 0.3v0.7h-1.6v-0.7c0-0.2-0.2-0.3-0.3-0.3-0.2 0-0.3 0.1-0.3 0.3v0.7h-1.1c-0.6 0-1.2 0.5-1.2 1.2v12.6c0 0.6 0.6 1.2 1.2 1.2h9.3c0.7 0 1.2-0.6 1.2-1.2v-4.4l-0.9 0.9v3.5zm-2.3-10.2h-5.6c-0.1 0-0.3 0.1-0.3 0.3 0 0.1 0.2 0.2 0.3 0.2h5.6c0.2 0 0.3-0.1 0.3-0.2 0-0.2-0.1-0.3-0.3-0.3zm0 2.2h-5.6c-0.1 0-0.3 0.1-0.3 0.3 0 0.1 0.2 0.3 0.3 0.3h5.6c0.2 0 0.3-0.2 0.3-0.3 0-0.2-0.1-0.3-0.3-0.3z"/></svg>