<svg version="1.2" xmlns="http://www.w3.org/2000/svg" width="15" height="16"><path fill-rule="evenodd" d="M14.8 6.2l-.9.9-2.4-2.5.9-.9c.2-.3.7-.3.9-.1l1.5 1.7c.3.2.2.6 0 .9zM11.1 5l2.4 2.5-5.7 5.9c0 .1-.1.1-.2.2l-3 1q-.2 0-.2-.1-.1-.1-.1-.2l1-3.1c0-.2.1-.2.1-.3l1.1-1.1H2.9c-.2 0-.3-.1-.3-.2 0-.2.1-.3.3-.3H7zm-4 8.2l-1.5-1.5-.4 1.3.6.6zm4-7.2c-.1-.1-.2-.1-.3 0l-4.5 4.6c-.1.1-.1.2 0 .3.1.1.2.1.3 0l4.5-4.6c.1-.1.1-.2 0-.3zm-.3 8.8c0 .1-.1.3-.3.3H5.3l-.5.1q-.2.1-.3.1-.3 0-.6-.2H1.2c-.2 0-.3-.2-.3-.3V2.2c0-.2.1-.3.3-.3h1.1v.5c0 .1.1.3.3.3.1 0 .3-.2.3-.3v-.5h1.6v.5c0 .1.2.3.3.3.2 0 .3-.2.3-.3v-.5h1.4v.5c0 .1.2.3.3.3.2 0 .3-.2.3-.3v-.5h1.6v.5c0 .1.1.3.3.3.2 0 .3-.2.3-.3v-.5h1.2c.2 0 .3.1.3.3v2.1l.3-.3.6-.6V2.2c0-.7-.5-1.2-1.2-1.2H9.3V.3C9.3.1 9.2 0 9 0c-.2 0-.3.1-.3.3V1H7.1V.3C7.1.1 7 0 6.8 0c-.1 0-.3.1-.3.3V1H5.1V.3C5.1.1 5 0 4.8 0c-.1 0-.3.1-.3.3V1H2.9V.3c0-.2-.2-.3-.3-.3-.2 0-.3.1-.3.3V1H1.2C.6 1 0 1.5 0 2.2v12.6c0 .6.6 1.2 1.2 1.2h9.3c.7 0 1.2-.6 1.2-1.2v-4.4l-.9.9v3.5zM8.5 4.6H2.9c-.1 0-.3.1-.3.3 0 .1.2.2.3.2h5.6c.2 0 .3-.1.3-.2 0-.2-.1-.3-.3-.3zm0 2.2H2.9c-.1 0-.3.1-.3.3 0 .1.2.3.3.3h5.6c.2 0 .3-.2.3-.3 0-.2-.1-.3-.3-.3z" fill="#c1c1c1"/></svg>