<svg version="1.2" xmlns="http://www.w3.org/2000/svg" viewBox="0 0 17 17" width="17" height="17"><style>.a{fill:#c1c1c1}</style><path fill-rule="evenodd" class="a" d="m14 3.8l-2.4 3.2c-0.2 0.2-0.4 0.3-0.6 0.3q-0.2 0-0.4-0.1l-2.7-1.5q0 0-0.1 0c-0.4 0.7-1.7 2.6-1.8 2.6-0.1 0.3-0.4 0.4-0.7 0.4h-2c-0.2 0-0.4-0.2-0.4-0.4 0-0.3 0.2-0.5 0.4-0.5h2c0 0 0 0 0 0l1.9-2.7c0.1-0.2 0.4-0.3 0.6-0.3q0.2 0 0.3 0l2.8 1.5q0 0 0 0c0.6-0.8 2.4-3 2.4-3q0.1-0.2 0.4-0.2 0.1 0 0.3 0.1 0.1 0.1 0.1 0.3 0 0.2-0.1 0.3zm2.6-2.4c0 0-0.1 0-0.1 0.2v9c0 0 0 0 0.1 0 0.2 0.1 0.4 0.3 0.4 0.6v0.3c0 0.3-0.2 0.6-0.5 0.6h-16c-0.3 0-0.5-0.3-0.5-0.6v-0.3c0-0.3 0.2-0.5 0.4-0.5 0 0 0.1-0.1 0.1-0.1v-9.1c0-0.1-0.1-0.1-0.2-0.1-0.2-0.1-0.3-0.3-0.3-0.5v-0.4c0-0.3 0.2-0.5 0.5-0.5h16c0.3 0 0.5 0.2 0.5 0.5v0.4c0 0.2-0.2 0.4-0.4 0.5zm-1 0.2c0-0.2-0.2-0.1-0.2-0.1h-13.8c0 0-0.2 0-0.2 0.1 0 2.2 0 6.7 0 8.9 0 0.1 0.1 0.1 0.1 0.1h14c0 0 0.1 0 0.1-0.1 0-2.2 0-6.7 0-8.9zm-3.3 15.2q-0.1 0.2-0.4 0.2-0.1 0-0.3-0.1l-2.6-1.8c0 0 0 0 0 0.1 0 0.3 0 1.3 0 1.3 0 0.3-0.2 0.5-0.5 0.5-0.3 0-0.5-0.2-0.5-0.5 0 0 0-1 0-1.3 0-0.1 0-0.1 0-0.1l-2.6 1.8q-0.2 0.1-0.3 0.1-0.3 0-0.4-0.2c-0.2-0.2-0.1-0.5 0.1-0.7l3.1-2.1c0 0 0.1-0.1 0.1-0.1 0-0.2 0-0.8 0-0.8 0-0.3 0.2-0.3 0.5-0.3 0.3 0 0.5 0 0.5 0.3 0 0 0 0.6 0 0.8 0 0 0.1 0.1 0.1 0.1l3.1 2.1c0.2 0.2 0.3 0.5 0.1 0.7z"/></svg>