<svg version="1.2" xmlns="http://www.w3.org/2000/svg" width="17" height="17"><path fill-rule="evenodd" d="M14 3.8L11.6 7c-.2.2-.4.3-.6.3q-.2 0-.4-.1L7.9 5.7h-.1c-.4.7-1.7 2.6-1.8 2.6-.1.3-.4.4-.7.4h-2c-.2 0-.4-.2-.4-.4 0-.3.2-.5.4-.5h2l1.9-2.7c.1-.2.4-.3.6-.3h.3l2.8 1.5c.6-.8 2.4-3 2.4-3q.1-.2.4-.2.1 0 .3.1.1.1.1.3 0 .2-.1.3zm2.6-2.4s-.1 0-.1.2v9h.1c.2.1.4.3.4.6v.3c0 .3-.2.6-.5.6H.5c-.3 0-.5-.3-.5-.6v-.3c0-.3.2-.5.4-.5l.1-.1V1.5c0-.1-.1-.1-.2-.1-.2-.1-.3-.3-.3-.5V.5C0 .2.2 0 .5 0h16c.3 0 .5.2.5.5v.4c0 .2-.2.4-.4.5zm-1 .2c0-.2-.2-.1-.2-.1H1.6s-.2 0-.2.1v8.9c0 .1.1.1.1.1h14s.1 0 .1-.1V1.6zm-3.3 15.2q-.1.2-.4.2-.1 0-.3-.1L9 15.1v1.4c0 .3-.2.5-.5.5s-.5-.2-.5-.5v-1.4l-2.6 1.8q-.2.1-.3.1-.3 0-.4-.2c-.2-.2-.1-.5.1-.7L7.9 14l.1-.1v-.8c0-.3.2-.3.5-.3s.5 0 .5.3v.8l.1.1 3.1 2.1c.2.2.3.5.1.7z" fill="#c1c1c1"/></svg>