<svg version="1.2" xmlns="http://www.w3.org/2000/svg" width="16" height="15"><path d="M8.3 9.5c.4 0 .7-.4.7-.8S8.7 8 8.3 8L5 5.6l2.6 3.2c0 .4.3.7.7.7zM8 0C3.6 0 0 3.6 0 8.1c0 1.7.5 3.3 1.4 4.6h1v-.1l1.4-1.2-.7-.8-1.3 1.2C1.2 10.7.9 9.5.9 8.1V8h1.6V6.9H1c.2-1.2.7-2.4 1.5-3.3l1.1 1.1.7-.7-1.1-1.2c1.1-1 2.5-1.7 4.1-1.9v1.9h1V.9c1.8.1 3.4.8 4.6 2l-1.1 1.2.7.7 1.1-1.1c.7.9 1.2 2 1.4 3.2h-1.5V8h1.6v.1c0 1.4-.3 2.6-.9 3.7l-1.3-1.3-.7.8 1.4 1.3v.1h1c.9-1.3 1.4-2.9 1.4-4.6C16 3.6 12.4 0 8 0zM4.4 13.1h7.2V15H4.4z" fill="#fff"/></svg>