<svg version="1.2" xmlns="http://www.w3.org/2000/svg" width="20" height="17"><path fill-rule="evenodd" d="M10 14.9l3.5-5.1c2-2.5 2-6.3 0-8.3-1.9-2-5.1-2-7 0-2 2-2 5.7 0 8.3zM7.1 2.2c1.6-1.7 4.2-1.7 5.8 0 1.6 1.7 1.5 4.7 0 6.9L10 13.4 7.1 9.1c-1.6-2.2-1.6-5.2 0-6.9zM10 8.1c1.5 0 2.7-1.3 2.7-2.9 0-1.5-1.2-2.8-2.7-2.8-1.5 0-2.8 1.3-2.8 2.8 0 1.6 1.3 2.9 2.8 2.9zm0-4.8c1 0 1.8.9 1.8 1.9 0 1.1-.8 1.9-1.8 1.9s-1.9-.8-1.9-1.9c0-1 .9-1.9 1.9-1.9zm7.7 9h-4.6c-.2 0-.4.2-.4.5 0 .2.2.4.4.4h4.6c.7 0 1.4.7 1.4 1.5 0 .7-.7 1.4-1.4 1.4H2.2c-.7 0-1.3-.7-1.3-1.4 0-.8.6-1.5 1.3-1.5h4.6c.2 0 .4-.2.4-.4 0-.3-.2-.5-.4-.5H2.2C1 12.3 0 13.4 0 14.7 0 16 1 17 2.2 17h15.5c1.2 0 2.3-1 2.3-2.3 0-1.3-1.1-2.4-2.3-2.4z" fill="#c1c1c1"/></svg>