<svg xmlns="http://www.w3.org/2000/svg" width="22" height="22" viewBox="0 0 24 24"><g fill="none"><circle cx="12" cy="12" r="2" stroke="currentColor"/><path fill="currentColor" d="M5.399 5.88l.25-.434a.5.5 0 00-.617.093l.367.34zM3.4 9.344l-.478-.148a.5.5 0 00.228.58l.25-.432zm-.002 5.311l-.25-.433a.5.5 0 00-.228.581l.478-.148zm2 3.464l-.367.34a.5.5 0 00.617.093l-.25-.433zm4.6 2.655h-.5a.5.5 0 00.39.488l.11-.488zm4.001.002l.111.488a.5.5 0 00.389-.488H14zM18.6 18.12l-.25.433a.5.5 0 00.617-.093l-.367-.34zm1.998-3.466l.478.148a.5.5 0 00-.228-.58l-.25.432zm.002-5.311l.25.433a.5.5 0 00.228-.581l-.478.148zm-2-3.465l.367-.34a.5.5 0 00-.617-.093l.25.433zM14 3.225h.5a.5.5 0 00-.389-.487L14 3.225zm-4-.002l-.111-.488a.5.5 0 00-.39.488h.5zm4 1.849h-.5.5zm5 8.66l-.25.433.25-.433zm-2 3.464l-.25.433.25-.433zM5 13.732l.25.433-.25-.433zm2-6.928l-.25.433.25-.433zM3.878 9.492a8.49 8.49 0 011.887-3.273l-.733-.68a9.49 9.49 0 00-2.11 3.658l.956.295zm.76 6.758a8.527 8.527 0 01-.761-1.742l-.956.296a9.54 9.54 0 00.852 1.946l.866-.5zm1.128 1.53a8.53 8.53 0 01-1.127-1.53l-.866.5a9.528 9.528 0 001.259 1.71l.734-.68zm8.123 2.51a8.49 8.49 0 01-3.778-.002l-.222.974a9.491 9.491 0 004.222.003l-.222-.975zm6.233-5.782a8.49 8.49 0 01-1.887 3.273l.733.68a9.491 9.491 0 002.11-3.658l-.956-.295zm-.76-6.758c.324.563.577 1.147.762 1.742l.955-.296a9.529 9.529 0 00-.852-1.946l-.866.5zm-1.128-1.53a8.48 8.48 0 011.127 1.53l.866-.5a9.524 9.524 0 00-1.259-1.71l-.734.68zm-8.123-2.51a8.49 8.49 0 013.778.002l.222-.974a9.49 9.49 0 00-4.222-.003l.222.975zm.389 1.362v-1.85h-1v1.85h1zM7.25 6.37l-1.601-.925-.5.866 1.6.925.5-.866zm-2.5 6.928l-1.601.924.5.866 1.6-.924-.5-.866zm.5-3.464l-1.6-.923-.5.866 1.6.923.5-.866zm5.25 10.94v-1.847h-1v1.847h1zm-3.75-4.012l-1.601.924.5.866 1.6-.924-.5-.866zm12.101.925l-1.601-.925-.5.866 1.601.925.5-.866zm-4.351 3.09v-1.85h-1v1.85h1zM20.351 8.91l-1.601.924.5.866 1.601-.924-.5-.866zm.498 5.311L19.25 13.3l-.5.866 1.6.923.5-.866zM14.5 5.072V3.225h-1v1.847h1zm3.851.374l-1.601.925.5.866 1.601-.925-.5-.866zM13.5 5.072c0 1.924 2.083 3.127 3.75 2.165l-.5-.866a1.5 1.5 0 01-2.25-1.3h-1zm5.25 4.763c-1.667.962-1.667 3.368 0 4.33l.5-.866a1.5 1.5 0 010-2.598l-.5-.866zm-1.5 6.928c-1.667-.962-3.75.24-3.75 2.165h1a1.5 1.5 0 012.25-1.299l.5-.866zm-6.75 2.165c0-1.924-2.083-3.127-3.75-2.165l.5.866a1.5 1.5 0 012.25 1.3h1zm-5.25-4.763c1.667-.962 1.667-3.368 0-4.33l-.5.866c1 .577 1 2.02 0 2.598l.5.866zM9.5 5.072A1.5 1.5 0 017.25 6.37l-.5.866c1.667.962 3.75-.24 3.75-2.165h-1z"/></g></svg>