<svg version="1.2" xmlns="http://www.w3.org/2000/svg" width="18" height="18"><path fill-rule="evenodd" d="M9 0C4 0 0 4 0 9s4 9 9 9c.8 0 1.5-.7 1.5-1.5 0-.4-.1-.7-.4-1-.2-.3-.4-.6-.4-1 0-.8.7-1.5 1.5-1.5H13c2.8 0 5-2.2 5-5 0-4.4-4-8-9-8zM3.5 9C2.7 9 2 8.3 2 7.5S2.7 6 3.5 6 5 6.7 5 7.5 4.3 9 3.5 9zm3-4C5.7 5 5 4.3 5 3.5S5.7 2 6.5 2 8 2.7 8 3.5 7.3 5 6.5 5zm5 0c-.8 0-1.5-.7-1.5-1.5S10.7 2 11.5 2s1.5.7 1.5 1.5S12.3 5 11.5 5zm3 4c-.8 0-1.5-.7-1.5-1.5S13.7 6 14.5 6s1.5.7 1.5 1.5S15.3 9 14.5 9z" fill="#c1c1c1"/></svg>