<svg version="1.2" xmlns="http://www.w3.org/2000/svg" width="15" height="15"><path fill-rule="evenodd" d="M0 7.5C0 3.4 3.4 0 7.5 0S15 3.4 15 7.5 11.6 15 7.5 15 0 11.6 0 7.5zm1.1 0c0 3.5 2.9 6.4 6.4 6.4 3.5 0 6.4-2.9 6.4-6.4 0-3.5-2.9-6.4-6.4-6.4C4 1.1 1.1 4 1.1 7.5zM4.6 6c-.3-.3-.3-.9 0-1.2q.3-.2.6-.2.4 0 .6.2c.4.3.4.9 0 1.2q-.2.3-.6.3-.3 0-.6-.3zm4.3 0c-.3-.3-.3-.9 0-1.2q.3-.2.6-.2.4 0 .6.2c.4.3.4.9 0 1.2q-.2.3-.6.3-.3 0-.6-.3zM4 9.2L5 9v-.1c0 .1.4 1.3 2.4 1.3S10 8.9 10 8.9c.1-.3.4-.4.7-.3.3.1.4.4.3.7 0 .1-.8 1.9-3.6 1.9-2.9 0-3.4-1.9-3.4-2z" fill="#c1c1c1"/></svg>