<svg version="1.2" xmlns="http://www.w3.org/2000/svg" width="16" height="14"><path fill-rule="evenodd" d="M15.5.5q-.4-.5-1-.5h-13Q.9 0 .5.5 0 .9 0 1.6v10.8q0 .7.5 1.1.4.5 1 .5h13q.6 0 1-.5.5-.4.5-1.1V1.6q0-.7-.5-1.1zM4.9 12.4q0 .1-.1.2t-.2.1H1.5q-.1 0-.2-.1t-.1-.2v-1.9q0-.1.1-.2t.2-.1h3.1q.2 0 .2.1.1.1.1.2zm0-3.8q0 .1-.1.2t-.2.1H1.5q-.1 0-.2-.1t-.1-.2V6.7q0-.2.1-.3h3.5q.1.1.1.3zm0-3.8q0 .1-.1.2t-.2.1H1.5q-.1 0-.2-.1t-.1-.2v-2q0-.1.1-.2t.2-.1h3.1q.1 0 .2.1t.1.2zm4.9 7.7v.2q-.1.1-.3.1h-3q-.2 0-.3-.1v-2.4h3.6v2.2zm0-3.8v.2q-.1.1-.3.1h-3q-.2 0-.3-.1V6.5q.1-.1.3-.1h3q.2 0 .3.1v2.2zm0-3.9v.3q-.1.1-.3.1h-3q-.2 0-.3-.1V2.7q.1-.1.3-.1h3q.2 0 .3.1v2.1zm5 7.7q0 .1-.1.2t-.2.1h-3.1q-.1 0-.2-.1t-.1-.2v-1.9q0-.2.1-.3h3.5q.1.1.1.3zm0-3.8q0 .1-.1.2t-.2.1h-3.1q-.1 0-.2-.1t-.1-.2v-2q0-.1.1-.2t.2-.1h3.1q.1 0 .2.1t.1.2zm0-3.8q0 .2-.1.3h-3.5q-.1-.1-.1-.3V3q0-.1.1-.2t.2-.1h3.1q.1 0 .2.1t.1.2z" fill="#c1c1c1"/></svg>