<svg xmlns="http://www.w3.org/2000/svg" width="1602.714" height="741.713"><path d="M378.212 718.811c-6-2.245-7.677-4.444-6.252-8.192.66-1.736 1.928-3.157 2.818-3.157.89 0 4.784 2.047 8.655 4.548 3.87 2.502 8.603 5.118 10.517 5.813l3.48 1.263-4.28.093c-2.356.051-5.81.315-7.678.586-1.867.27-5.134-.159-7.26-.954zm-13.617-11.525c-1.13-.632-3.013-.845-4.185-.473-1.476.469-2.616-.23-3.708-2.27-.868-1.621-2.423-3.238-3.455-3.593-2.37-.815-7.337-8.863-10.102-16.366-1.396-3.79-3.274-6.409-5.503-7.677-3.956-2.25-4.239-3.27-1.177-4.242 3.503-1.112 4.154-7.287 1.206-11.427-1.407-1.977-2.148-4.297-1.724-5.402.5-1.304-.88-3.591-4.224-6.998-4.22-4.3-5-5.864-5.19-10.395-.122-2.933-.836-6.073-1.587-6.977-.945-1.14-1.138-5.23-.628-13.315.554-8.763.231-14.172-1.293-21.71-2.265-11.194-3.421-32.052-2.833-51.081.126-4.06-.4-9.634-1.17-12.387-1.871-6.703-10.483-15.164-21.128-20.758-7.613-4-8.683-5.026-11.66-11.17-1.802-3.722-5.246-9.283-7.654-12.36-2.407-3.076-5.025-7.594-5.817-10.039-2.512-7.76-6.942-15.56-9.962-17.538-1.607-1.053-3.44-3.79-4.073-6.084-1.024-3.71-.754-4.747 2.453-9.408 3.478-5.055 3.519-5.26 1.169-5.875-5.775-1.51-3.346-9.23 7.019-22.31 6.89-8.693 8.907-15.315 6.999-22.967-.727-2.915-1.378-5.965-1.447-6.777-.069-.812-.587-1.477-1.15-1.477-.565 0-.456-1.065.24-2.367 1.074-2.006.803-2.579-1.777-3.754-3.76-1.714-9.439-.02-9.46 2.822-.027 3.408-1.526 3.659-6.467 1.083-2.646-1.38-5.395-2.508-6.108-2.508-.714 0-3.487-1.887-6.165-4.193-2.677-2.306-5.531-4.719-6.343-5.361-.812-.643-1.477-2.394-1.477-3.892 0-1.497-1.043-3.667-2.317-4.82-1.275-1.154-2.927-3.943-3.671-6.197-.978-2.964-1.71-3.743-2.643-2.81-1.946 1.946-4.827 1.576-11.819-1.516-3.655-1.617-7.463-4.378-8.985-6.514-1.452-2.04-4.226-4.528-6.165-5.53-3.2-1.655-4-1.642-8.66.137l-5.135 1.961-15.754-7.634c-9.69-4.696-17.212-9.175-19.541-11.639-3.612-3.82-3.729-4.234-2.527-8.969 1.1-4.337.914-5.68-1.48-10.626-1.508-3.114-4.802-7.898-7.32-10.63-2.518-2.731-4.292-5.43-3.942-5.995.35-.566-1.425-4.378-3.942-8.471-2.86-4.651-4.878-9.633-5.38-13.278-.643-4.674-1.391-6.103-3.762-7.184-2.514-1.145-3.216-.999-4.655.967-2.027 2.769-1.45 5.692 3.03 15.376 1.821 3.935 3.703 9.769 4.183 12.964.479 3.195 1.894 7.814 3.144 10.266 2.962 5.806 1.05 5.703-3.621-.194-2.755-3.479-3.499-5.386-2.952-7.568.585-2.329.01-3.45-2.854-5.568-4.342-3.21-5.261-5.281-3.666-8.262.93-1.738.503-3.644-1.859-8.306-2.399-4.734-2.9-7.028-2.307-10.543.971-5.748-1.607-10.95-6.414-12.94-2.775-1.15-3.732-2.436-4.297-5.777-.4-2.363-1.167-6.02-1.703-8.126-.558-2.191-.518-4.113.095-4.491.588-.364.203-1.984-.856-3.601-1.56-2.381-1.667-3.508-.563-5.932.75-1.646 1.034-3.528.63-4.182-.405-.653.602-2.606 2.237-4.34 1.634-1.734 3.81-5.191 4.836-7.683 1.025-2.492 4.184-7.112 7.02-10.267 2.836-3.154 6.431-8.68 7.99-12.279 2.163-4.995 3.43-6.548 5.36-6.563 1.389-.011 2.452.644 2.361 1.456-.376 3.383 2.3 2.341 5.305-2.067 1.772-2.598 2.727-4.902 2.124-5.118-.603-.217-1.097-1.194-1.097-2.172 0-.979-2.445-4.155-5.433-7.06-4.957-4.817-5.275-5.455-3.627-7.277 1.335-1.475 1.492-2.558.602-4.15-1.565-2.795.904-9.058 3.582-9.083 1.106-.01 1.421-.387.742-.886-1.523-1.119-2.213-3.66-1.999-7.363.342-5.914-.952-8.388-5.35-10.225-2.37-.991-5.99-3.082-8.04-4.647-2.052-1.564-4.655-2.844-5.785-2.844s-6.264-1.075-11.41-2.39c-8.274-2.112-9.732-2.195-12.598-.72-5.94 3.057-12.233 4.303-14.798 2.93-1.924-1.03-4.024-.394-11.347 3.436-4.942 2.585-10.846 5.102-13.12 5.592-2.273.49-6.624 2.146-9.668 3.68-8.636 4.352-21.006 8.738-24.428 8.662-2.208-.05-.715-1.018 5.16-3.348 9.986-3.96 20.246-9.116 21.196-10.652 1.168-1.891-1.369-2.57-4.417-1.181-2.244 1.022-3.627.927-6.217-.43l-3.33-1.745 3.623-1.874c4.095-2.117 5.384-4.513 4.443-8.262-.912-3.631 4.113-6.3 14.937-7.932 5.816-.877 10.238-2.337 13.215-4.363 5.249-3.574 4.347-6.274-1.313-3.93-2.679 1.11-4.63 1.122-8.598.053-4.822-1.298-4.994-1.483-2.837-3.06 3.609-2.64 11.073-4.227 15.977-3.398 3.103.524 5.645.157 8.254-1.192l3.77-1.95-2.482-2.64c-1.365-1.454-2.482-2.955-2.482-3.336 0-1.096 7.11-3.288 10.666-3.288 1.774 0 6.639-1.284 10.81-2.854s13.794-3.714 21.385-4.764c12.312-1.702 14.919-1.723 24.15-.192 5.692.944 13.538 2.07 17.436 2.501 3.898.432 10.796 1.803 15.33 3.047 10.53 2.89 17.39 2.854 29.154-.15 5.195-1.326 10.445-2.094 11.667-1.706 1.223.388 3.301.129 4.619-.577 1.816-.971 3.224-.854 5.815.486 2.34 1.21 5.23 1.556 9.164 1.096 4.15-.486 7.784.017 13.09 1.81 4.039 1.367 8.525 2.484 9.969 2.484 2.558 0 2.566.044.332 1.687-2.19 1.612-2.196 1.725-.14 2.522 1.184.459 5.295.506 9.134.104 6.934-.724 6.994-.704 8.927 3.035l1.947 3.764 2.527-3.169c1.452-1.82 4.902-3.883 8.112-4.85 4.851-1.46 6.323-1.455 11.196.038 3.44 1.053 7.556 1.437 10.639.991 3.926-.567 5.748-.214 8.31 1.61 3.233 2.303 3.323 2.304 6.191.081 1.6-1.24 4.894-2.808 7.32-3.484 5.804-1.617 7.773-5.064 4.287-7.505-2.465-1.727-2.358-1.859 4.123-5.037 4.833-2.37 7.01-2.91 7.952-1.967.942.942.932 1.978-.035 3.786-1.65 3.081.403 7.738 2.975 6.751.925-.354 2.458-.347 3.408.018 1.493.573 1.469 1.058-.175 3.567-4.541 6.93 5.64 4.967 12.532-2.417 2.802-3.002 7.143-3.913 11.213-2.351 2.628 1.008 2.382 1.834-1.97 6.606-5.187 5.687-7.841 6.85-15.63 6.85-3.766 0-8.21.816-10.281 1.886-2.867 1.483-4.265 1.606-6.526.576-4.215-1.92-5.683-.322-2.66 2.897l2.582 2.747-5.15 1.462c-2.832.804-7.541 1.539-10.464 1.634-4.24.138-5.317.598-5.323 2.274-.006 1.434-2.068 2.943-6.496 4.753-14.348 5.864-26.519 16.439-22.112 19.211.825.52 2.136 2.392 2.912 4.16.894 2.037 2.617 3.457 4.7 3.874 1.808.362 6.477 2.228 10.374 4.148 3.898 1.919 8.681 3.837 10.63 4.262 5.365 1.169 5.412 1.292 2.913 7.631-2.137 5.424-2.18 6.198-.524 9.401.993 1.92 2.456 3.473 3.251 3.45 3.87-.112 7.5-3.684 9.754-9.6 2.149-5.64 3.128-6.691 9.296-9.985 9.103-4.863 12.889-9.651 11.88-15.029-.657-3.502-.316-4.324 2.682-6.459 1.89-1.345 4.391-4.565 5.559-7.155 2.61-5.79 6.806-7.796 13.88-6.64 6.273 1.026 13.692 5.009 14.588 7.832.368 1.16.062 3.24-.679 4.626-1.123 2.097-.91 2.983 1.27 5.304l2.618 2.787 4.274-2.216c2.352-1.219 6.12-3.596 8.374-5.283l4.1-3.067.962 2.603c.53 1.432.68 3.34.335 4.242-.346.902-.077 2.67.597 3.932.76 1.418.818 3.022.155 4.207-.748 1.336-.248 3.366 1.653 6.713 2.723 4.794 2.723 4.798.332 6.473-3.147 2.204-1.128 4.541 2.326 2.693 3.43-1.836 7.357-1.597 9.778.594 3.58 3.24.603 7.116-8.898 11.586-10.335 4.862-14.941 5.825-28.43 5.944-9.962.089-11.28.406-20.965 5.049-5.684 2.724-10.334 5.421-10.334 5.993 0 2.437 1.79 2.225 8.662-1.026 4.049-1.915 9.267-3.446 11.753-3.446 4.245 0 4.4.13 3.074 2.608-.767 1.434-2.424 3.44-3.68 4.458-1.975 1.6-2.091 2.275-.855 4.989 1.855 4.07 6.698 6.028 12.49 5.05l4.579-.772-3.52 2.429c-1.937 1.335-5.126 2.775-7.087 3.198-1.961.424-5.993 1.993-8.958 3.487-3.01 1.517-6.035 2.32-6.847 1.817-1.87-1.155.104-2.888 6.176-5.426 5.401-2.256 4.538-4.654-1.283-3.562-2.267.426-9.619 3.195-16.337 6.154-10.486 4.619-12.315 5.839-12.926 8.618-.75 3.417-3.31 5.033-12.312 7.771-2.87.874-6.591 2.985-8.267 4.692-1.676 1.706-4.885 4.261-7.13 5.678-2.247 1.416-4.397 3.898-4.78 5.515-.63 2.664-.776 2.727-1.564.675-1.478-3.846-3.705-.086-3.833 6.471-.132 6.719-3.537 11.302-11.006 14.811-7.658 3.599-18.555 12.1-20.763 16.2-1.95 3.62-2.031 5.03-.83 14.334 1.12 8.679 1.053 10.857-.421 13.708-1.101 2.129-2.386 3.147-3.455 2.736-2.534-.972-5.634-11.4-4.765-16.031.604-3.217.204-4.435-2.193-6.687-1.932-1.815-3.715-2.505-5.23-2.024-1.266.402-4.843-.36-7.954-1.694-4.767-2.043-6.288-2.214-9.69-1.09-2.308.76-4.6 2.566-5.35 4.214-1.117 2.45-1.857 2.766-4.941 2.102-1.995-.429-5.063-1.513-6.817-2.41-4.32-2.207-6.74-2.053-11.592.737-2.264 1.302-6.883 3.793-10.265 5.536-3.886 2.003-6.556 4.283-7.256 6.196-.609 1.665-2.787 8.156-4.84 14.424l-3.731 11.396 1.906 7.356c3.502 13.516 8.375 17.562 18.527 15.384 7.654-1.641 12.25-4.967 13.94-10.087 1.073-3.251 2.23-4.326 5.695-5.288 5.215-1.448 7.392-1.502 9.395-.23 1.653 1.048 1.072 2.774-6.328 18.795-5.078 10.993-4.712 11.977 3.987 10.722 7.925-1.143 15.17-.266 16.016 1.94.33.859-.207 6.66-1.193 12.89-1.763 11.147-1.75 11.396.788 15.503 1.42 2.297 4.08 4.95 5.913 5.898 2.925 1.513 3.843 1.51 7.525-.028 5.85-2.444 9.026-2.186 13.089 1.065 3.249 2.599 3.708 2.672 6.26 1 1.516-.993 3.583-3.454 4.595-5.469 2.28-4.543 6.122-7.736 9.35-7.77 1.348-.015 3.7-1.355 5.225-2.98 3.099-3.297 8.554-4.372 5.888-1.159-2.238 2.696-3.518 11.37-2.075 14.064 1.2 2.244 1.297 2.231 3.483-.468 1.555-1.921 1.87-3.153 1.019-4.004-2.029-2.028-1.418-3.714 2.357-6.505 3.919-2.897 6.95-2.6 10.332 1.014 2.48 2.65 15.72 6.23 19.514 5.278 5.778-1.45 21.39 8.043 27.257 16.573 2.793 4.062 11.716 8.15 15.64 7.165 8.071-2.026 19.137 6.06 21.725 15.876.77 2.923 1.933 5.646 2.582 6.05 1.723 1.074-.858 5.316-6.5 10.683-3.606 3.43-4.466 4.906-3.452 5.92 1.014 1.015 2.681.126 6.684-3.564 5.822-5.367 7.765-5.911 10.682-2.995 1.774 1.774 1.72 2.136-.712 4.724-1.449 1.542-3.471 2.837-4.495 2.878-1.078.044-.642.562 1.037 1.232 2.308.922 3.511.662 5.906-1.272 6.236-5.039 7.702-5.28 13.241-2.186 3.601 2.012 5.043 3.543 4.862 5.163-.505 4.504.557 5.501 3.68 3.455 2.481-1.626 4.184-1.703 12.487-.566 8.833 1.21 9.99 1.691 14.227 5.929 3.146 3.146 6.685 5.215 11.13 6.507 5.969 1.735 6.617 2.264 7.7 6.285 1.57 5.828-.27 12.296-5.243 18.44-2.125 2.625-4.729 6.477-5.787 8.562-1.058 2.085-3.309 5.175-5 6.867-2.865 2.864-3.025 3.581-2.31 10.383 1.394 13.287-5.105 38.078-11.374 43.38-2.042 1.726-3.788 2.131-7.025 1.63-2.66-.412-4.63-.146-5.15.695-.462.749-3.042 2.33-5.73 3.512-2.69 1.182-6.694 3.69-8.898 5.573-3.815 3.258-3.943 3.619-2.659 7.509 1.48 4.485.484 9.796-2.689 14.325-1.025 1.464-1.864 3.955-1.864 5.536 0 1.58-1.233 4.518-2.739 6.528-1.506 2.01-4.411 6.611-6.456 10.225-5.03 8.89-8.056 10.431-15.35 7.817-6.33-2.27-9.706-2.54-9.706-.78 0 .664 1.261 1.782 2.804 2.484 1.542.703 3.946 3.564 5.34 6.358 2.079 4.16 2.298 5.605 1.216 7.981-1.678 3.682-8.093 6.773-14.055 6.773-5.281 0-6.591 1.292-4.767 4.7 1.126 2.104.368 5.489-1.809 8.084-.176.21-2.026-.5-4.11-1.577-4.974-2.572-6.735-.934-4.22 3.928 1.022 1.977 2.966 3.947 4.32 4.376 2.327.739 2.352.903.46 2.993-1.102 1.217-1.673 3.065-1.272 4.111.432 1.125-.53 3.553-2.356 5.947-2.969 3.891-3.01 4.16-1.108 7.065 1.088 1.66 2.785 3.329 3.771 3.707 3.557 1.365 4.147 6.028 1.435 11.345-2.717 5.326-3.134 10.665-1.031 13.2 1.912 2.303-4.522 6.791-7.415 5.172zm-87.043-511.533c3.156-6.595 9.028-11.506 13.757-11.506 3.404 0 3.444.553.327 4.515l-2.45 3.115 2.514 2.036c2.026 1.64 3.071 1.782 5.38.73 1.577-.718 3.193-2.333 3.591-3.589.543-1.708 1.424-2.107 3.504-1.585 1.925.483 3.13.07 3.922-1.346 2.4-4.288-3.707-9.773-8.203-7.366-3.217 1.721-7.42-1.704-6.523-5.316.333-1.339-.351-3.67-1.536-5.232-2.44-3.222-6.155-3.562-14.283-1.305-2.923.811-6.257 1.439-7.407 1.394-1.151-.044-1.784.419-1.407 1.029.377.61.256 1.121-.27 1.136-.525.014-2.278 1.042-3.894 2.284l-2.94 2.258 3.301 1.255c2.58.98 4.102.84 6.967-.641 3.369-1.742 3.992-1.74 7.668.012 2.214 1.056 5.237 1.598 6.768 1.214 1.522-.382 3.093-.167 3.491.478.407.658-1.256 1.506-3.8 1.936-6.911 1.168-10.503 4.046-15.516 12.437-4.188 7.008-4.428 7.854-2.759 9.706 1.638 1.818 2.09 1.847 4.337.275 1.38-.965 3.837-4.53 5.46-7.924zm21.458 7.29c4.204-2.145 4.609-2.684 3.127-4.165-1.482-1.482-2.418-1.385-7.238.747-5.66 2.503-7.456 5.881-3.127 5.881 1.325 0 4.582-1.108 7.238-2.463zm20.942-8.924c2.46-1.724 2.55-2.062.816-3.033-2.554-1.429-10.146 1.034-10.146 3.292 0 2.326 5.87 2.163 9.33-.26zm88.699 510.036c0-.52.638-1.583 1.417-2.362.78-.78.971-1.418.426-1.418-.546 0-1.63.872-2.409 1.937-1.118 1.53-1.89 1.661-3.673.627-1.274-.74-1.584-1.326-.711-1.347.85-.02 1.217-.567.816-1.217-.771-1.247 1.256-1.587 7.086-1.189 5.204.356 5.728 1.116 2.511 3.646-2.996 2.357-5.463 2.954-5.463 1.323zM1395 674.513c-3.379-2.14 3.658-6.868 21.104-14.177 4.872-2.041 12.296-6.31 16.497-9.486 7.145-5.401 7.737-5.635 9.153-3.614 2.15 3.069.883 5.29-4.367 7.657-2.508 1.131-5.662 3.324-7.009 4.873-1.346 1.548-3.513 2.815-4.814 2.815-1.302 0-4.361 1.79-6.8 3.978-8.344 7.488-18.914 11.026-23.764 7.954zm-82.657-15.343c-1.227-.778-1.296-1.578-.295-3.447.716-1.34 1.303-4.1 1.303-6.136 0-3.327.268-3.606 2.657-2.765 1.462.514 4.518 1.004 6.791 1.09 2.274.084 4.545.23 5.047.325 1.958.367-3.274 6.323-7.975 9.078-5.6 3.28-5.368 3.224-7.528 1.855zm136.477-10.328c-.41-.41.562-1.777 2.162-3.036 2.41-1.896 2.692-2.697 1.638-4.666-1.525-2.849.74-5.906 5.985-8.078 4.063-1.683 5.087-5.099 3.997-13.342-.75-5.67-.658-6.025 1.17-4.513 1.434 1.186 1.787 2.681 1.276 5.408-.561 2.988-.057 4.541 2.435 7.503 2.693 3.2 3.493 3.548 5.588 2.427 2.088-1.117 2.332-1.016 1.675.697-.423 1.103-.77 2.214-.77 2.47 0 .254-1.727 1.347-3.838 2.428-2.111 1.081-6.23 3.94-9.153 6.354-4.754 3.924-9.646 7.095-10.946 7.095-.26 0-.808-.336-1.219-.747zm-124.893-15.254c-2.487-2.647-2.947-2.75-5.337-1.184-3.044 1.996-8.766.83-13.352-2.72-2.446-1.894-2.616-2.505-1.355-4.862 1.077-2.012 1.113-3.422.14-5.555-.716-1.572-1.302-3.897-1.302-5.165 0-2.862-1.858-2.998-3.396-.25-.633 1.132-1.49 1.719-1.903 1.305-.414-.413.954-2.695 3.04-5.07 5.132-5.845 3.129-7.432-3.65-2.892-2.921 1.956-5.5 4.094-5.732 4.75-.23.655-1.635-1.369-3.12-4.499-1.609-3.393-4.389-6.804-6.887-8.45-3.753-2.472-5.025-2.675-12.234-1.958-10.573 1.052-20.773 3.66-27.45 7.016-3.034 1.525-8.956 3.087-13.523 3.566-4.469.469-11.576 2.151-15.794 3.739-6.45 2.428-8.285 2.683-11.553 1.604-4.384-1.447-6.205-4.429-3.369-5.517 1.027-.394 2.89-3.104 4.141-6.023 2.003-4.671 2.114-6.126.926-12.162-.982-4.994-1.01-9.723-.1-17.412.686-5.805.949-11.698.584-13.095-.366-1.397.205-4.817 1.268-7.6 1.874-4.907 2.328-5.228 14.998-10.594 7.187-3.044 14.543-5.535 16.347-5.535 4.882 0 10.927-4.644 14.26-10.956 2.059-3.9 3.488-5.385 4.723-4.907 3.45 1.333 4.131 1.071 3.865-1.486-.17-1.645.536-2.842 1.942-3.288 1.216-.386 3.463-2.537 4.993-4.78 1.567-2.295 4.788-4.882 7.373-5.92 4.311-1.73 4.74-1.705 7.086.427 4.327 3.934 7.394 5.082 8.858 3.317.712-.858.957-1.898.544-2.31-1.352-1.353 4.834-9.115 7.858-9.86 1.624-.4 4.958-1.733 7.41-2.96 3.822-1.916 5.166-2.043 9.448-.893 9.233 2.479 9.54 2.884 6.105 8.074-4.416 6.675-3.245 9.285 7.589 16.91 5.001 3.52 9.723 6.192 10.493 5.935.77-.256 3.202-2.952 5.406-5.99 3.003-4.14 4.168-7.152 4.65-12.02.683-6.917 3.991-16.535 5.686-16.535.56 0 1.846 2.844 2.857 6.32 1.01 3.477 3.129 7.534 4.706 9.017 3.688 3.464 5.83 13.15 4.174 18.873-1.097 3.793-.885 4.401 2.875 8.268 2.232 2.296 5.762 7.894 7.845 12.441 2.083 4.548 5.838 10.981 8.345 14.298l4.558 6.03-1.295 9.316c-.94 6.758-2.396 11.263-5.302 16.41-4.451 7.884-11.107 15.407-14.615 16.52-1.262.401-4.185 3.36-6.495 6.577-2.31 3.216-4.721 5.847-5.357 5.847-.636 0-3.337 2.76-6.004 6.134-4.447 5.626-5.266 6.142-9.9 6.229-3.556.067-6.279 1.03-9.199 3.258l-4.148 3.164-2.72-2.897zm-575.913-24.832c-2.502-2.502-2.92-3.78-2.36-7.226.526-3.241.025-5.148-2.222-8.454-1.596-2.348-2.901-4.847-2.901-5.554 0-.706-2.089-4.083-4.641-7.504-3.946-5.288-4.756-7.401-5.407-14.091-1.148-11.805-4.917-24.582-9.984-33.844-2.49-4.553-4.883-10.464-5.316-13.136-.923-5.686 1.386-14.15 6.657-24.403l3.507-6.82-1.97-5.933c-1.103-3.319-1.641-7.246-1.223-8.914.49-1.951-.036-4.276-1.525-6.734-1.25-2.064-3.106-6.677-4.125-10.25-1.361-4.771-3.258-7.874-7.15-11.692-7.485-7.344-8.458-10.235-6.135-18.227 4.729-16.268-.38-25.756-12.861-23.884-4.86.729-5.046.638-5.732-2.795-.527-2.635-1.955-4.184-5.54-6.013-4.658-2.376-6.652-2.385-12.372-.056-1.3.53-6.614 2.363-11.81 4.075-7.815 2.575-10.16 2.907-13.562 1.92-3.223-.934-5.937-.692-12.53 1.117-6.814 1.87-9.284 2.07-12.965 1.053-7.682-2.12-20.88-14.017-22.758-20.512-1.453-5.026-10.488-16.74-13.562-17.583-1.954-.537-2.195-.952-.998-1.724 1.203-.777.994-1.17-.886-1.661-2.985-.78-3.282-3.22-.395-3.245 1.766-.016 1.809-.185.295-1.163-1.116-.721-1.24-1.152-.335-1.163.938-.012.58-1.468-1.029-4.197-2.265-3.84-2.312-4.346-.582-6.259 5.285-5.839 6.442-18.41 2.425-26.33-1.917-3.782-.684-9.005 3.408-14.435 1.54-2.045 4.549-7.02 6.685-11.055 3.736-7.06 12.064-16.874 14.318-16.874 2.494 0 10.542-8.652 10.542-11.334 0-6.054 3.62-12.09 9.521-15.878 3.172-2.034 6.887-5.514 8.258-7.731 2.804-4.537 3.2-4.685 6.466-2.409 1.28.893 4.465 1.982 7.075 2.42 3.98.667 5.884.187 11.81-2.983 10.199-5.454 16.5-6.816 28.17-6.088 7.695.48 11.16.173 14.89-1.32 5.494-2.198 10.243-.897 8.958 2.454-.387 1.007-.15 2.496.524 3.309.85 1.023.843 2.489-.022 4.761-1.085 2.855-.844 3.705 1.845 6.512 1.701 1.776 4.747 3.56 6.769 3.963 9.492 1.899 12.19 3.128 14.15 6.447 1.437 2.43 3.32 3.678 6.431 4.262 2.42.454 5.935 1.619 7.81 2.588 3.184 1.647 3.597 1.587 6.253-.908 1.785-1.677 2.595-3.452 2.176-4.772-.367-1.156-.088-3.184.62-4.508 1.828-3.414 7.016-3.08 15.117.976 8.826 4.419 25.562 7.571 31.496 5.933 2.854-.788 5.598-.798 8.096-.03 8.16 2.508 12.34.544 13.454-6.321.37-2.28 1.002-4.146 1.404-4.146.764 0 1.163-3.428 1.274-10.925.036-2.436.611-4.429 1.28-4.429.795 0 .755-.855-.114-2.48-1.453-2.715-4.398-2.653-11.448.24-3.343 1.372-4.274 1.314-7.269-.455-3.883-2.294-7.869-2.638-9.018-.779-.854 1.383-6.893.414-10.169-1.632-2.353-1.47-4.551-5.843-4.551-9.055 0-1.232-1.196-3.082-2.658-4.112-2.262-1.593-2.394-2.044-.886-3.031.975-.638 2.979-.876 4.454-.529 1.882.443 3.612-.298 5.797-2.482 2.055-2.056 4.555-3.19 7.356-3.34 2.334-.123 5.714-1.194 7.512-2.379 3.903-2.571 12.763-1.857 19.638 1.584 9.27 4.64 17.504 4.368 20.818-.69 1.724-2.63 1.733-3.184.097-5.68-.997-1.522-5.785-5.027-10.64-7.79l-8.829-5.022 1.654-3.199c.91-1.76 1.356-3.496.992-3.86-.364-.364-.224-1.362.31-2.217s1.074-2.241 1.202-3.08c.27-1.789-1.634-1.295-11.027 2.859-5.452 2.411-6.262 3.15-5.053 4.608.792.954 2.571 1.759 3.953 1.787 1.939.04 1.48.598-2.008 2.438-4.235 2.234-4.707 2.263-7.46.46-2.355-1.543-2.663-2.261-1.547-3.605 1.107-1.335.942-1.848-.807-2.506-1.21-.454-2.77-1.586-3.466-2.514-3.383-4.51-14.116 7.352-17.238 19.05-1.465 5.49-1.416 5.776 1.342 7.857l2.862 2.159-5.25 1.083c-2.89.596-6.782.665-8.651.154-3.45-.942-7.821.478-7.821 2.541 0 .607-.804.794-1.787.417-.983-.377-2.543-.058-3.467.709-1.433 1.19-1.27 2.164 1.104 6.631 2.573 4.839 2.653 5.5 1.048 8.718-2.011 4.03-3.881 3.73-6.722-1.078-1.98-3.352-1.967-3.43.653-3.801 3.307-.47 3.52-2.575.313-3.087-7.318-1.17-11.22-5.026-11.22-11.087 0-4.729-4.384-9.942-9.7-11.535-2.763-.827-5.766-2.565-6.674-3.862-.908-1.296-3.566-3.157-5.907-4.135-2.34-.978-4.96-2.784-5.82-4.013-1.236-1.764-2.049-1.977-3.858-1.008-1.261.674-2.293 1.987-2.293 2.916 0 3.066 15.054 16.939 22.413 20.654 7.802 3.938 9.02 5.344 3.6 4.154-4.833-1.062-6.15 0-4.497 3.629 1.162 2.548.972 3.323-1.364 5.568l-2.714 2.607.618-3.518c.98-5.585-6.384-13.607-12.49-13.607-2.238 0-10.838-8.343-13.091-12.7-2.407-4.654-5.086-5.554-8.88-2.98-5.717 3.875-10.003 5.186-14.487 4.428-5.957-1.006-9.704 1.071-8.755 4.853.496 1.974.22 2.855-.893 2.855-.886 0-3.155 1.328-5.043 2.952-1.887 1.623-3.838 2.951-4.334 2.952-1.461.002-5.584 7.464-5.589 10.115-.005 2.536-4.623 7.531-9.08 9.82-1.419.73-4.722 1.326-7.34 1.326-3.602 0-5.078.594-6.066 2.44-1.294 2.418-1.333 2.412-4.36-.614-2.84-2.84-4.475-3.55-10.206-4.437-3.01-.466-3.52-7.282-1.267-16.993.962-4.15 1.435-8.802 1.05-10.337-1.12-4.459 2.384-7.088 8.245-6.188 13.533 2.079 21.449 2.194 23.305.338 2.549-2.55 3.699-10.958 2.143-15.672-1.015-3.075-2.41-4.332-6.575-5.923-6.125-2.339-6.254-4.602-.266-4.662 2.281-.023 5.573-.975 7.314-2.116 1.741-1.14 3.667-1.765 4.279-1.386 1.67 1.032 7.992-2.613 10.091-5.817 1.015-1.549 3.013-3.113 4.44-3.477 1.428-.364 5.253-3.137 8.5-6.163 4.605-4.289 7.022-5.634 10.97-6.105 4.891-.584 9.81-4.606 7.501-6.134-1.435-.95-2.634-6.669-1.835-8.752.379-.987 2.05-2.687 3.716-3.778l3.027-1.983-.777 4.86c-.675 4.217-.503 4.813 1.303 4.512 1.143-.192 3.283-1.01 4.754-1.818 2.24-1.23 2.79-1.17 3.38.369 1.013 2.637-1.801 5.739-3.744 4.126-1.073-.89-1.754-.858-2.353.112-.618 1-1.102.946-1.813-.204-.533-.862-1.24-1.297-1.571-.966-.332.332.613 2.127 2.098 3.99 2.504 3.14 2.981 3.29 6.55 2.045 3.056-1.065 4.523-.993 7.125.353 2.938 1.519 3.93 1.447 9.576-.699 4.946-1.88 6.896-2.12 9.085-1.123 2.015.918 3.507.899 5.378-.068 5.312-2.745 6.784-4.815 6.124-8.614-.977-5.632.813-7.477 5.529-5.697 3.209 1.212 4.146 1.164 5.597-.287 1.535-1.535 1.403-2.102-1.113-4.781-2.422-2.577-2.591-3.218-1.115-4.214.957-.646 4.545-.877 7.973-.514 6.273.664 14.09-1.786 12.728-3.99-1.193-1.93-8.393-2.488-14.493-1.123-5.41 1.211-6.83 1.113-10.976-.757-6.44-2.904-7.198-6.301-2.781-12.457 5.685-7.924 6.725-10.45 5.105-12.4-2.398-2.89-4.754-1.948-10.232 4.091-2.895 3.191-6.84 6.455-8.766 7.253-1.927.798-4.31 3.01-5.296 4.917-1.605 3.106-1.603 3.756.025 6.24.999 1.526 2.894 3.115 4.21 3.533 3.623 1.15 2.907 3.308-2.276 6.854-1.594 1.09-3.72 4.176-4.724 6.856-1.259 3.36-3.172 5.651-6.157 7.374-4.208 2.43-4.4 2.44-6.725.335-1.316-1.191-2.712-3.62-3.103-5.4-.39-1.777-2.164-4.974-3.942-7.103l-3.231-3.871-4.098 2.498c-2.253 1.373-5.16 2.488-6.46 2.476-3.747-.035-8.086-4.083-8.377-7.817-.144-1.855-.626-4.283-1.07-5.395-1.06-2.645 4.23-7.607 9.726-9.124 5.516-1.523 16.704-9.364 18.61-13.043.849-1.637 3.722-4.93 6.386-7.318 2.664-2.389 4.843-4.87 4.843-5.513 0-.643 2.525-2.069 5.61-3.168 3.086-1.1 8.268-3.095 11.516-4.434 3.987-1.643 8.973-2.512 15.354-2.676 11.147-.285 18.438 1.193 24.453 4.957 3.019 1.888 5.401 2.533 7.68 2.077 4.078-.816 25.815 5.922 26.72 8.282.911 2.372-5.323 4.611-10.687 3.839-2.457-.354-7.538-1.3-11.29-2.103-5.053-1.08-7.17-1.114-8.153-.131-.983.983-.492 1.709 1.893 2.795 1.772.808 3.99 2.954 4.929 4.77 2.39 4.623 10.049 8.393 14 6.89 3.796-1.443 3.77-1.898-.236-4.071-3.704-2.01-1.994-2.444 2.658-.675 3.715 1.412 7.924-.345 6.943-2.9-.459-1.195.832-2.06 4.473-2.992 7.793-1.997 8.363-2.282 7.717-3.862-2.445-5.977-2.48-5.806 1.078-5.4 1.898.217 3.284 1.029 3.127 1.831-.156.793.833 2.039 2.198 2.77 2.05 1.096 3.667.706 9.304-2.25 8.266-4.332 14.702-5.745 17.102-3.753 1.338 1.11 3.557 1.118 9.979.035 4.542-.766 8.774-1.074 9.405-.685.63.39 1.495.145 1.92-.543.93-1.506-1.643-4.923-3.052-4.052-1.701 1.051-7.287-.832-6.072-2.047 1.224-1.224 34.092 6.435 36.06 8.402 1.325 1.326 5.524-.443 5.524-2.328 0-.635-2.344-2.293-5.21-3.685-8.883-4.316-9.453-11.228-1.099-13.325 4.849-1.217 6.945.187 13.651 9.14 8.707 11.623 8.485 11.032 5.64 15.027-2.106 2.958-2.233 3.65-.772 4.21 2.77 1.063 8.696-2.655 9.53-5.978.977-3.894-.848-7.212-5.205-9.465-3.426-1.772-5.906-5.018-5.906-7.731 0-.925 1.285-1.156 3.839-.69 3.828.7 6.995-.688 15.666-6.868 1.982-1.413 5.335-2.344 8.714-2.42 6.856-.156 9.075-1.307 7.102-3.684-.773-.933-1.16-1.941-.86-2.242 1.509-1.508 20.953-4.226 25.43-3.555 4.31.646 5.643.297 9.188-2.407 2.281-1.74 4.148-3.632 4.148-4.204 0-1.444-10.321-1.315-11.22.14-1.238 2.002-2.841 1.305-2.39-1.038.38-1.978-.619-2.3-9.221-2.97-23.492-1.83-25.4-2.258-22.583-5.077 2.478-2.477 8.555-2.43 13.642.108 2.084 1.04 5.536 1.89 7.671 1.89 2.136 0 4.212.532 4.613 1.182.401.65 2.47 1.18 4.597 1.18 5.89 0 17.28 2.545 16.565 3.701-.348.563.754 1.024 2.448 1.024 1.695 0 4.782.915 6.861 2.034 2.796 1.504 6.701 2.046 15 2.079 8.921.036 11.886.494 14.468 2.235 1.787 1.205 3.24 2.529 3.231 2.941-.009.413-2.735 2.25-6.057 4.082-8.023 4.427-6.327 6.356 3.378 3.841 6.285-1.629 7.73-1.639 12.934-.093 4.27 1.268 6.935 1.43 9.831.6 2.89-.83 5.858-.651 10.893.653 5.253 1.362 7.975 1.5 11.305.575 7.598-2.11 16.946-1.514 22.368 1.427 2.696 1.461 7.667 4.165 11.047 6.01 5.991 3.267 6.252 3.304 10.408 1.44 3.478-1.559 5.419-1.69 10.55-.709 5.098.975 6.955.857 9.827-.629 2.81-1.453 3.261-2.167 2.189-3.459-2.074-2.498 5.284-3.427 14.324-1.808 4.141.741 9.389 1.482 11.662 1.645 2.274.163 6.716 1.459 9.872 2.88 4.812 2.165 8.443 2.656 22.524 3.043 13.36.367 17.614.901 20.837 2.619 3.271 1.744 7 2.187 19.403 2.308 11.411.111 16.524.652 19.909 2.107 5.464 2.349 7.65 1.487 4.675-1.842-2.139-2.395-2.126-2.398 6.124-1.579 13.825 1.374 30.409 4.399 36.023 6.572 2.923 1.13 8.494 2.445 12.38 2.92 3.887.476 9.557 2.128 12.602 3.67 4.621 2.342 6.123 2.6 9.09 1.566 4.058-1.414 6.69-.396 12.888 4.987l3.85 3.344-2.902.729c-2.912.73-10.645-1.184-13.31-3.295-.784-.621-1.882-.846-2.442-.5-.559.345-3.321-.166-6.138-1.137-6.598-2.273-9.527-1.419-6.522 1.901 2.052 2.268 2.007 2.315-1.907 2.042-7.324-.51-5.31 1.652 5.442 5.846 5.846 2.28 10.88 4.389 11.186 4.685 1.108 1.073-2.546 2.403-5.206 1.895-2.92-.559-10.114 2.575-10.114 4.405 0 .607-1.137 2.164-2.526 3.458-2.321 2.163-2.801 2.212-5.906.606-2.905-1.502-3.834-1.518-6.627-.11-1.786.899-4.839 2.018-6.784 2.487-1.945.468-4.199 1.4-5.007 2.071-2.377 1.973 1.814 7.715 7.717 10.572 3.215 1.556 5.542 3.642 6.234 5.585.608 1.706 1.895 4.507 2.862 6.226 1.575 2.8 1.561 3.199-.131 3.848-1.24.476-1.606 1.43-1.065 2.781.452 1.132.963 3.386 1.135 5.01.173 1.624.694 3.835 1.158 4.913.604 1.403.105 2.194-1.757 2.785-2.072.658-3.469-.134-6.876-3.902-2.352-2.6-6.275-6.18-8.718-7.954-2.443-1.775-6.82-6.391-9.726-10.258-5.127-6.82-5.232-7.13-3.531-10.421.965-1.865 1.773-4.614 1.796-6.107.024-1.494.772-4.036 1.665-5.65 1.706-3.081 1.049-5.541-2.598-9.725-2.395-2.747-6.655-.688-5.58 2.697.99 3.119-2.047 4.13-5.54 1.843-1.514-.99-5-2.16-7.746-2.598-4.714-.753-5.065-.608-6.286 2.598-.712 1.867-1.01 4.818-.663 6.558.54 2.712.164 3.267-2.626 3.88-1.898.417-5.148-.077-7.798-1.184-2.91-1.216-5.65-1.583-7.623-1.022-1.694.482-7.422.919-12.73.972-8.406.083-10.025.45-12.58 2.85-1.613 1.515-3.55 5.235-4.306 8.268-.756 3.032-2.14 6.696-3.077 8.142-1.62 2.499-1.463 2.751 3.166 5.113 5.024 2.563 10.501 3.238 14.654 1.806 3.202-1.105 12.973 6.513 16.024 12.493 1.25 2.45 3.315 5.012 4.59 5.694 4.824 2.582 5.804 19.522 1.77 30.597-2.793 7.668-5.919 10.175-10.51 8.43-1.753-.667-3.366-1.213-3.582-1.213-.217 0-1.531 2.18-2.92 4.845-1.824 3.5-2.18 5.263-1.28 6.347 1.72 2.073.447 4.77-2.994 6.339-1.589.723-2.888 1.83-2.888 2.46 0 .628 3.695 3.686 8.212 6.794 5.745 3.954 8.815 6.991 10.223 10.114 1.107 2.454 1.797 4.658 1.533 4.896-.264.238-2.678 1.541-5.365 2.896l-4.884 2.462-2.94-6.746c-3.289-7.55-6.11-10.587-11.081-11.925-2.503-.674-3.375-1.629-3.375-3.697 0-1.895-1.226-3.506-3.828-5.031-3.792-2.222-3.867-2.22-7.902.275-4.039 2.496-4.085 2.497-5.326.18-.687-1.286-1.25-3.151-1.25-4.145 0-.995-.993-2.34-2.207-2.989-1.804-.965-2.943-.382-6.26 3.207-2.23 2.413-5.087 4.974-6.349 5.691-1.957 1.114-2.062 1.585-.712 3.21.87 1.049 3.873 3.187 6.674 4.753 4.455 2.49 5.307 2.63 6.81 1.129 1.427-1.428 2.59-1.48 6.9-.31l5.183 1.406-2.889 1.931c-5.357 3.58-7.047 5.46-7.811 8.692-.628 2.652-.253 3.45 2.128 4.535 1.589.724 4.004 3.613 5.368 6.42 1.363 2.806 4.087 6.052 6.052 7.213 4.323 2.553 5.577 5.266 3.08 6.663-2.327 1.303-1.216 3.25 1.855 3.25 3.679 0 3.7 2.193.145 14.858-4.306 15.337-8.193 20.454-18.362 24.175-4.006 1.465-8.877 2.752-10.826 2.86-4.53.25-8.042 2.169-11.107 6.065l-2.433 3.092-1.134-2.984c-1.48-3.893-4.875-4.872-9.746-2.81-4.465 1.888-7.408 4.9-8.595 8.795-1.063 3.486 2.7 9.616 8.927 14.548 5.113 4.05 10.85 14.212 12.197 21.606 1.172 6.432-.904 10.653-6.474 13.164-2.537 1.145-4.911 3.02-5.276 4.17-.875 2.759-6.12 6.194-7.081 4.638-.4-.648-.416-2.161-.035-3.363s.363-3.048-.042-4.102c-.582-1.516-1.227-1.653-3.092-.655-1.942 1.04-2.691.776-4.26-1.498-3.854-5.589-15.026-14.57-18.123-14.57-1.091 0-1.512 1.312-1.325 4.134.15 2.273-.314 6.706-1.03 9.85-1.166 5.123-1.047 6.062 1.152 9.035 1.35 1.825 2.788 4.654 3.198 6.287.416 1.658 3.832 5.445 7.739 8.578 6.51 5.222 7.196 6.253 9.936 14.927 1.62 5.124 2.944 9.821 2.944 10.437 0 2.004-2.467 1.192-7.616-2.506-5.323-3.823-8.723-9.87-11.558-20.56-1.231-4.64-2.58-6.63-6.41-9.448-4.698-3.456-4.84-3.757-4.461-9.475.215-3.247.747-7.851 1.183-10.23.613-3.349.106-5.748-2.247-10.63-1.671-3.467-3.647-8.793-4.391-11.834-1.663-6.794-4.01-7.932-8.161-3.955-1.717 1.644-3.452 2.989-3.858 2.989-1.88 0-4.462-4.002-3.842-5.954 1.125-3.545-5.795-15.903-9.844-17.58-2.215-.918-4.24-3.143-5.596-6.15-2.355-5.222-4.998-7.22-7.637-5.776-.958.524-4.791 1.578-8.52 2.343-6.833 1.401-9.285 3.47-8.35 7.048.345 1.317-.85 2.59-3.718 3.957-2.325 1.109-4.83 3.338-5.566 4.955-.736 1.616-2.358 3.262-3.603 3.657-1.246.396-3.167 2.203-4.27 4.017-1.103 1.814-4.388 5.13-7.3 7.367-3.986 3.063-5.23 4.776-5.032 6.93 1.158 12.596-.619 23.133-4.955 29.391-4.23 6.104-4.528 6.274-8.106 4.643-1.97-.897-3.183-2.65-3.685-5.326-.412-2.194-2.79-8.375-5.286-13.736-15.102-32.436-17.335-38.625-16.049-44.482.87-3.958-1.216-9.93-3.232-9.254-.808.27-1.483 1.244-1.5 2.163-.1 5.39-6.157 6.218-10.888 1.488l-3.134-3.135 2.696-.998c3.035-1.122 2.756-4.15-.33-3.594-1.097.197-3.607-1-5.578-2.658-1.972-1.659-4.04-3.016-4.595-3.016-.556 0-1.35-1.069-1.765-2.375-1.089-3.43-7.354-6.414-10.494-4.998-2.826 1.274-28.463 1.008-32.754-.34-1.545-.485-4.404-2.707-6.353-4.938-3.522-4.03-3.576-4.046-8.858-2.622-5.005 1.349-5.732 1.222-12.474-2.182-5.826-2.94-7.571-4.527-9.37-8.515-2.294-5.088-7.39-8.772-10.489-7.583-.975.374-2.115 2.235-2.532 4.134-.6 2.728.012 4.5 2.907 8.438 2.017 2.742 4.213 7.017 4.882 9.5 1.437 5.335 4.273 6.922 6.625 3.707 1.419-1.941 1.802-2.009 2.762-.487.614.97.945 2.297.736 2.946-.657 2.042 6.158 5.402 9.338 4.604 1.607-.404 5.041-3.14 7.63-6.083 4.081-4.635 5.506-4.948 4.808-1.056-.47 2.62 1.592 5.691 5.004 7.455 5.27 2.725 12.613 8.794 12.613 10.426 0 .753-1.38 2.657-3.067 4.232-1.688 1.574-4.116 4.906-5.397 7.404-3.111 6.07-12.13 14.946-15.185 14.946-3.53 0-8.78 2.981-10.87 6.171-.991 1.512-3.595 3.644-5.786 4.738-11.226 5.604-24.742 11.286-28.545 12-4.067.762-4.397.577-6.551-3.671-1.248-2.46-2.663-7.397-3.146-10.97-.627-4.647-1.844-7.6-4.274-10.375-1.868-2.134-3.397-4.392-3.397-5.019 0-.626-2.131-3.334-4.736-6.019-3.245-3.343-5.34-6.97-6.655-11.517-1.055-3.65-3.203-8.23-4.772-10.18-10.84-13.46-14.049-18.206-15.665-23.162-2.141-6.57-3.952-7.63-4.788-2.805l-.593 3.425-3.996-5.045c-6.156-7.773-6.932-4.24-1.152 5.25 2.735 4.49 7.095 12.417 9.688 17.614 2.594 5.196 5.956 11.093 7.472 13.103 1.561 2.07 2.757 5.305 2.757 7.46 0 4.45 1.327 7.227 6.543 13.688 2.098 2.598 4.17 6.392 4.606 8.43.558 2.614 2.838 5.347 7.739 9.278 7.448 5.975 12.274 12.21 13.472 17.407.45 1.952 2.155 3.956 4.316 5.074 3.294 1.703 4.454 1.657 14.862-.599 6.21-1.345 12.787-3.22 14.617-4.166l3.328-1.72.79 4.674c.717 4.249-.055 6.295-8.463 22.42-9.04 17.34-9.463 17.913-18.452 25.01-5.06 3.994-10.355 8.884-11.767 10.867-1.412 1.982-5.928 7.337-10.037 11.899-11.99 13.313-13.62 25.022-5.668 40.716 2.02 3.987 2.809 7.004 2.33 8.912-.398 1.586-.143 5.594.567 8.905 1.118 5.213.992 6.607-.943 10.399-2.793 5.472-5.014 7.439-12.82 11.35-3.411 1.71-6.201 3.612-6.201 4.23 0 .616-2.392 3.814-5.315 7.105-2.923 3.292-5.315 6.52-5.315 7.173 0 .654 1.096 3.337 2.435 5.962 4.015 7.87 1.317 13.573-8.307 17.56-4.057 1.68-5.39 5.111-4.386 11.296.526 3.24.192 4.319-1.645 5.301-1.267.679-3.559 3.204-5.092 5.612-4.842 7.603-18.759 21.057-25.081 24.246-5.276 2.662-6.625 2.896-10.502 1.826-3.417-.944-6.175-.794-11.905.645-9.28 2.331-8.296 2.428-11.89-1.166zM903.578 232.05c3.05-1.576 3.485-2.444 3.485-6.942 0-3.224-.69-5.712-1.85-6.674-1.017-.845-2.665-3.113-3.662-5.041-1.65-3.19-1.643-3.441.078-2.78 2.272.87 5.434-.178 5.434-1.803 0-.642-1.099-2.71-2.442-4.596-2.023-2.841-2.833-3.22-4.724-2.208-1.529.818-2.283.826-2.283.023 0-.66-2.108-2.274-4.684-3.589-5.702-2.909-7.731-6.132-5.953-9.455 1.346-2.515 6.155-4.277 8.208-3.008 2.769 1.711 3.585-.811 1.3-4.019-5.54-7.78-13.252-7.267-22.818 1.515-6.172 5.667-6.708 7.173-3.217 9.042 1.299.695 2.362 2.054 2.362 3.02 0 .966 2.1 4.036 4.668 6.821 5.914 6.416 6.998 9.348 6.267 16.94l-.59 6.113 8.115 4.164c4.463 2.29 8.273 4.19 8.468 4.221.195.032 1.922-.753 3.838-1.744zM871.04 561.96c-3.335-1.891-3.808-2.89-4.68-9.86-.695-5.572-.405-6.783 2.928-12.199 3.387-5.504 3.63-6.565 2.883-12.544-1.078-8.633.758-13.17 5.775-14.27 4.728-1.038 14.957-10.068 17.408-15.368l1.872-4.05 1.302 2.857c3.276 7.188 2.942 10.346-2.756 26.113-3.049 8.437-6.32 18.528-7.269 22.426-3.037 12.473-4.763 15.48-9.737 16.971-5.297 1.587-4.784 1.592-7.726-.076zm581.797-20.534c-3.769-4.123-6.024-7.66-6.024-9.448 0-3.963.636-3.617 4.044 2.198 1.63 2.781 4.576 6.6 6.546 8.489 1.97 1.888 3.583 3.864 3.583 4.392 0 2.272-2.515.535-8.15-5.63zM925.96 539.75c0-.65.532-1.181 1.181-1.181.65 0 1.181.531 1.181 1.18 0 .65-.531 1.182-1.18 1.182-.65 0-1.182-.532-1.182-1.181zm621.963-2.155c-.417-.674-.182-1.58.521-2.016 1.755-1.084 2.377-.222 1.205 1.674-.627 1.015-1.236 1.136-1.726.342zm-613.695-1.91c0-.286.531-.849 1.18-1.25.65-.402 1.182-.167 1.182.52 0 .689-.532 1.252-1.181 1.252-.65 0-1.181-.235-1.181-.521zm582.981-11.986c-1.15-2.998.31-4.049 3.565-2.566 2.81 1.28 2.872 1.477.913 2.909-2.738 2.002-3.603 1.936-4.478-.343zm7.483-5.253c-2.308-1.426-.71-2.565 2.963-2.111 2.877.355 2.943.485.888 1.752-1.313.81-2.886.956-3.85.36zm-55.144-4.334c-2.425-5.223-1.575-7.229.933-2.202 2.61 5.232 2.656 5.403 1.43 5.39-.488-.005-1.55-1.44-2.363-3.188zm4.523-.838c-.051-1.245.228-1.943.62-1.55.392.392.434 1.411.093 2.264-.377.942-.657.662-.714-.714zm96.15-11.34c-1.08-1.748-.055-2.642 2.467-2.15 1.845.36 1.865.552.198 1.934-1.328 1.1-2.08 1.162-2.664.216zm-698-5.884c-.401-.65-.167-1.181.521-1.181.688 0 1.251.532 1.251 1.181 0 .65-.234 1.181-.52 1.181-.287 0-.85-.531-1.252-1.18zm518.49-11.096c-7.473-2.357-10.862-4.546-13.804-8.918-3.36-4.995-9.51-8.776-12.651-7.779-1.27.403-3.407 2.595-4.75 4.87-2.284 3.872-2.723 4.086-6.876 3.347-2.44-.433-5.848-2.104-7.574-3.713-2.193-2.044-3.874-2.69-5.586-2.147-1.347.428-3.299.302-4.337-.279-1.623-.908-1.464-1.334 1.132-3.036 3.009-1.97 3.013-1.997.995-6.229-1.621-3.4-3.857-5.17-11.17-8.847-5.028-2.528-10.713-4.597-12.633-4.597-4.392 0-6.205-4.048-2.897-6.467 1.968-1.44 1.68-1.797-3.454-4.292-5.452-2.648-5.53-2.76-2.926-4.206 1.472-.818 3.841-1.505 5.266-1.528 2.767-.045 6.268 3.948 6.268 7.148 0 1.067 1.148 3.4 2.552 5.185 2.515 3.198 2.58 3.21 4.43.902 1.031-1.289 4.326-3.747 7.32-5.463l5.445-3.12 7.547 3.405c4.151 1.872 10.044 4.304 13.094 5.403 3.051 1.1 9.154 4.368 13.561 7.263 8.418 5.528 12.075 10.19 9.977 12.717-1.71 2.06 5.006 11.443 11.958 16.707 7.64 5.786 7.511 6.322-.886 3.674zm51.401-.096c-.931-1.122-1.021-1.8-.238-1.8 1.428 0 3.092 2.241 2.273 3.06-.298.297-1.213-.27-2.035-1.26zm-198.445-4.807c-1.711-.947-2.207-1.643-1.18-1.657 2.11-.028 5.483 1.937 4.689 2.732-.307.307-1.886-.177-3.51-1.075zm19.969-1.561c3.349-4.704 8.59-6.717 13.437-5.16 3.531 1.134 3.586 1.228.782 1.34-1.659.067-5.53 1.715-8.603 3.664-7.012 4.447-8.705 4.494-5.616.156zm171.366 1.616c-1.596-1.923-1.214-2.164 1.675-1.055 1.028.394 1.868 1.191 1.868 1.772 0 1.633-1.913 1.246-3.543-.717zm5.532-1.042c-.444-1.158-.774-2.99-.733-4.075.05-1.304.46-1.007 1.215.882.627 1.568.957 3.401.732 4.074-.224.672-.77.276-1.214-.881zm91.316 1.111c0-.286.531-.849 1.181-1.25.65-.402 1.181-.168 1.181.52 0 .688-.531 1.251-1.181 1.251s-1.181-.234-1.181-.52zm-302.066-4.96c-.817-.344-1.184-1.112-.817-1.706.903-1.46 8.472-1.379 9.387.1.401.65.034 1.19-.817 1.198-.85.009-2.609.245-3.908.525s-3.03.227-3.845-.117zm17.534-.887c-2.146-2.586.327-3.373 5.891-1.875 5.605 1.51 5.586 1.746-.224 2.795-3.017.544-4.675.275-5.667-.92zm177.329-.718c-.818-1.309-.963-2.362-.326-2.362.632 0 1.718 1.063 2.414 2.362.695 1.299.841 2.362.325 2.362s-1.602-1.063-2.413-2.362zm7.396-1.189c-3.158-3.489-1.467-4.037 1.782-.578 1.524 1.621 2.228 2.948 1.566 2.948-.662 0-2.169-1.066-3.348-2.37zm-221.445-.204c-4.222-.586-10.175-1.885-13.229-2.887-3.054-1.002-6.652-1.472-7.996-1.046-2.704.858-14.207-2.523-14.207-4.176 0-3.776 10.588-4.062 16.215-.44 2.1 1.353 3.756 1.444 8.197.448 4.92-1.102 5.945-.966 8.836 1.17 1.798 1.33 3.805 2.418 4.459 2.418 2.335 0 9.424 3.951 8.825 4.92-.335.542-1.242.912-2.016.821-.774-.09-4.861-.643-9.084-1.228zm212.003-5.694c-1.176-1.299-1.606-2.362-.957-2.362.65 0 2.143 1.063 3.319 2.362 1.176 1.3 1.606 2.362.957 2.362-.65 0-2.143-1.063-3.32-2.362zm-7.448-1.496c-.671-.808-1.562-3.061-1.98-5.006-.674-3.133-.598-3.267.66-1.175.782 1.3 2.179 3.24 3.105 4.312.98 1.137 1.214 2.24.559 2.645-.619.382-1.673.033-2.344-.776zm-25.013-3.755l-2.935-1.624 4.55-.854c2.5-.469 6.346-2.432 8.543-4.361 2.4-2.106 3.989-2.87 3.978-1.91-.027 2.402-1.48 4.253-5.894 7.51-4.612 3.402-4.394 3.37-8.242 1.24zm-221.552-4.599c-4.339-2.472-12.165-12.036-14.713-17.98-1.374-3.207-4.524-8.488-7-11.736-2.475-3.248-5.316-7.5-6.314-9.448-.997-1.949-4.027-5.67-6.732-8.268-5.704-5.478-9.213-11.235-6.822-11.194 3.1.053 11.077 4.49 14.499 8.061 9.44 9.854 11.373 11.608 15.83 14.354 4.3 2.65 6.336 5.407 6.54 8.858.039.65 1.262 2.51 2.718 4.133 1.456 1.624 4.204 4.679 6.106 6.788 1.902 2.109 3.802 5.4 4.222 7.312 1.375 6.26-3.667 11.779-8.334 9.12zm-237.904-.78c0-.649.532-1.18 1.182-1.18.65 0 1.18.531 1.18 1.18 0 .65-.53 1.182-1.18 1.182-.65 0-1.182-.532-1.182-1.181zm312.387-.01c-.405-.655-.408-2.226-.011-3.49.401-1.265-.087-3.542-1.087-5.068-1.644-2.51-1.629-3.036.167-5.6 1.09-1.556 2.376-5.735 2.858-9.286.595-4.382 1.77-7.35 3.654-9.235 2.577-2.577 3.225-2.692 9.02-1.593 4.975.944 6.932.827 9.64-.573 4.536-2.346 4.867-2.24 3.36 1.065-1.914 4.202-5.739 5.545-9.772 3.431-7.203-3.774-16.76 1.835-11.717 6.877 1.853 1.853 2.878 2.021 6.311 1.037 5.884-1.688 8.203-1.378 4.55.607-4.136 2.248-4.92 4.741-2.79 8.863.97 1.875 1.764 4.784 1.764 6.463 0 2.687-.283 2.901-2.364 1.787-1.3-.696-3.176-3.208-4.169-5.584-1.79-4.286-1.822-4.3-4.114-2.009-2.01 2.01-2.146 2.903-1.045 6.887.994 3.6.927 4.79-.314 5.577-2.086 1.323-3.055 1.284-3.945-.156zm162.044-6.3c-1.113-1.699-3.663-3.936-5.666-4.972-2.003-1.036-3.376-2.15-3.051-2.474 1.836-1.836 12.085 6.505 11.212 9.125-.269.805-1.34.084-2.495-1.678zm-185.471-3.93c-1.782-.934-4.183-1.398-5.335-1.033-2.938.933-14.61-1.443-15.766-3.208-.92-1.405-3.626-10.059-5.073-16.226-.398-1.696 0-3.896.93-5.17 1.352-1.846 2.05-1.986 4.191-.84 2.26 1.208 2.739 1.002 3.978-1.718.775-1.7 3.354-4.084 5.73-5.296 2.519-1.285 4.938-3.69 5.796-5.76.988-2.387 2.794-3.99 5.497-4.882 2.213-.73 5.41-3.146 7.104-5.366 1.694-2.221 3.71-4.038 4.48-4.038.77 0 3.1 1.754 5.178 3.899l3.78 3.898-3.03 4.074c-3.441 4.627-3.26 8.607.638 14.083l2.361 3.315-2.942 1.928c-1.617 1.06-2.939 2.58-2.936 3.376.011 2.706-7.558 18.298-9.455 19.483-1.32.825-2.858.669-5.126-.52zm68.61-.022c-2.444-.639-2.783-2.73-.443-2.73.893 0 3.393.355 5.555.787 3.328.666 3.577.925 1.624 1.689-2.565 1.003-3.705 1.046-6.736.254zm188.086-15.06c0-.287.531-.85 1.18-1.251.65-.402 1.182-.167 1.182.52 0 .688-.532 1.251-1.181 1.251-.65 0-1.181-.234-1.181-.52zm-192.224-3.204c-.944-.944-1-2.039-.181-3.568.649-1.213.865-2.715.48-3.337-1.065-1.724 1.603-5.906 3.768-5.906 1.737 0 1.73.203-.076 2.197-1.56 1.725-1.734 2.866-.807 5.305 1.875 4.93-.164 8.33-3.185 5.31zm-593.19-3.883c0-.286.532-.85 1.182-1.25.65-.402 1.181-.168 1.181.52 0 .688-.531 1.25-1.181 1.25s-1.181-.234-1.181-.52zM1510 420.462c-.401-.65-.167-1.181.521-1.181.688 0 1.25.531 1.25 1.18 0 .65-.234 1.182-.52 1.182-.287 0-.85-.532-1.25-1.181zM698.013 409.31c0-.286.532-.85 1.181-1.25.65-.402 1.181-.168 1.181.52 0 .688-.531 1.25-1.18 1.25-.65 0-1.182-.233-1.182-.52zm568.108-17.758c-2.253-5.255-2.553-5.49-6.02-4.73-3.456.76-3.576.667-2.282-1.753 1.073-2.003 2.067-2.4 4.607-1.843 2.45.538 4.015-.006 6.414-2.23 1.746-1.618 3.186-3.897 3.2-5.065.037-2.98 4.423 7.017 5.424 12.362.76 4.058.665 4.279-1.18 2.75-2.74-2.27-5.378.085-3.13 2.793.897 1.081 1.012 1.822.282 1.822-.676 0-2.065.32-3.086.713-1.371.526-2.48-.736-4.23-4.819zm-215.343 2.087c-1.32-2.144-2.072-11.769-1.118-14.323 1.012-2.708 1.088-2.675 4.097 1.772 3.606 5.33 4.76 8.747 3.57 10.572-1.139 1.747-5.821 3.162-6.55 1.98zm263.755-6.11c0-.649.531-1.509 1.18-1.91.65-.402 1.182-.199 1.182.451s-.532 1.51-1.181 1.911c-.65.402-1.181.199-1.181-.451zm185.428-.138c0-.65.234-1.182.52-1.182.287 0 .85.532 1.252 1.182.401.65.167 1.18-.521 1.18-.688 0-1.251-.53-1.251-1.18zm-268.103-6.824c0-.505 2.368-3.561 5.262-6.791 4.24-4.733 5.272-5.402 5.314-3.447.03 1.335-1.746 4.391-3.944 6.792-3.729 4.07-6.632 5.579-6.632 3.446zm25.58-3.151c-.43-1.122-.342-2.824.195-3.784.832-1.487 1.178-1.501 2.344-.097 1.044 1.258.998 2.154-.194 3.784-1.464 2.002-1.61 2.008-2.344.097zm-904.452-4.602c.723-.872.965-1.935.538-2.362-.428-.428.325-.778 1.671-.778 1.867 0 2.302.561 1.83 2.363-.358 1.371-1.61 2.362-2.986 2.362-1.848 0-2.08-.349-1.053-1.585zm912.378-.313c-.44-1.23-1.016-2.635-1.279-3.122-.263-.487.023-.886.635-.886 1.178 0 2.838 4.85 1.96 5.728-.284.284-.876-.49-1.316-1.72zm-11.969-3.082c-1.658-1.998-.042-4.844 2.439-4.29 1.555.348 1.612.839.364 3.149-1.204 2.23-1.724 2.441-2.803 1.141zm13.964-4.059c-1.355-1.723-2.267-3.33-2.026-3.57.96-.96 4.28 1.154 6.047 3.85 2.716 4.145-.729 3.906-4.02-.28zm-19.416-4.572c-1.052-1.051-1.912-2.524-1.912-3.271 0-.748 1.166-.193 2.591 1.233 1.426 1.425 2.286 2.897 1.913 3.27-.374.375-1.54-.18-2.592-1.232zm-927.085-.168c-.433-.434-.788-1.337-.788-2.008 0-.74.55-.67 1.398.177.769.769 1.123 1.672.787 2.008-.335.335-.964.256-1.397-.177zm-6.693-1.575c0-.65.234-1.181.52-1.181.287 0 .85.531 1.252 1.18.401.65.167 1.182-.521 1.182-.688 0-1.25-.532-1.25-1.181zm55.51-2.362c0-.65.235-1.181.521-1.181.287 0 .85.531 1.251 1.18.401.65.167 1.182-.52 1.182-.689 0-1.252-.532-1.252-1.181zm890.148-.18c-1.184-.668-3.429-.894-4.988-.503-2.287.574-3.864-.346-8.145-4.75-6.048-6.223-7.223-8.846-5.45-12.161.686-1.281 1.247-3.927 1.247-5.88 0-6.411 4.294-6.152 7.442.449 1.744 3.657 1.755 4.442.116 8.364-1.764 4.223-1.73 4.412 1.418 7.697 2.273 2.373 3.979 3.178 5.775 2.727 1.52-.38 3.157.092 4.05 1.168 2.127 2.563 1.2 4.392-1.465 2.889zm-897.234-7.428c0-.286.531-.849 1.181-1.25.65-.402 1.181-.167 1.181.52 0 .688-.531 1.251-1.18 1.251-.65 0-1.182-.234-1.182-.52zm185.428-4.203c0-.65.532-1.181 1.181-1.181.65 0 1.181.531 1.181 1.18 0 .65-.531 1.182-1.18 1.182-.65 0-1.182-.531-1.182-1.181zm-188.971-4.585c0-.65.531-1.51 1.18-1.911.65-.401 1.182-.198 1.182.451 0 .65-.532 1.51-1.181 1.911-.65.402-1.181.199-1.181-.451zm-10.031-4.85c-.414-.67.06-.868 1.111-.464 2.047.785 2.42 1.631.722 1.631-.611 0-1.436-.525-1.833-1.167zm187.782-.014c-.401-.65-.167-1.18.52-1.18.689 0 1.252.53 1.252 1.18 0 .65-.235 1.181-.521 1.181-.287 0-.85-.531-1.25-1.18zm-183.066-2.362c-.402-.65-.167-1.18.52-1.18.689 0 1.252.53 1.252 1.18 0 .65-.235 1.181-.521 1.181-.287 0-.85-.531-1.251-1.18zm5.315 0c0-.65.234-1.18.52-1.18.287 0 .85.53 1.251 1.18.402.65.167 1.181-.52 1.181-.688 0-1.251-.531-1.251-1.18zm-81.199-3.144c-.812-.328-1.476-1.083-1.476-1.678 0-1.703 5.213-1.265 7.746.65 2.178 1.648 2.116 1.732-1.25 1.68-1.95-.031-4.208-.324-5.02-.652zm29.886-.67c-1.059-.593-3.4-.754-5.2-.359-1.8.396-4.57.2-6.156-.433-2.547-1.02-2.322-1.14 1.95-1.04 6.28.147 7.956-.875 6.351-3.874-1.139-2.128-.796-2.29 4.838-2.29 5.45 0 13.313 2.5 14.646 4.656.886 1.433-14.314 4.524-16.429 3.34zm22.655.747c-1.4-1.4.34-2.838 3.433-2.838 1.857 0 2.798.557 2.495 1.476-.544 1.654-4.685 2.605-5.928 1.362zm854.478-1.879c-3.128-3.127-.032-6.865 5.685-6.865 2.535 0 2.537.021.362 3.744-2.534 4.34-4.048 5.121-6.047 3.121zm-844.717-.242c0-.256.797-.77 1.771-1.144.975-.374 1.772-.165 1.772.464 0 .63-.797 1.144-1.772 1.144-.974 0-1.771-.209-1.771-.464zm-51.056-8.466c-.364-.365-2.857-.694-5.54-.73-3.701-.052-4.589-.416-3.681-1.51.877-1.057-.382-2.464-4.725-5.278-8.513-5.516-13.266-6.595-18.986-4.306-5.363 2.146-5.774 2.207-5.774.855 0-2.472 9.4-5.19 16.168-4.676 6.474.492 10.098 1.87 22.808 8.67 10.446 5.588 10.458 5.599 7.086 6.56-3.83 1.092-6.526 1.244-7.356.415zm8.537-9.967c2.29-1.48 3.543-1.48 3.543 0 0 .65-1.196 1.173-2.657 1.163-2.149-.015-2.319-.237-.886-1.163zm940.605-2.095c-.715-.472-1.944-2.08-2.731-3.575-1.187-2.253-1.064-3.347.72-6.401 2.755-4.717 4.615-5.306 5.51-1.743.94 3.747-1.779 12.855-3.499 11.72zm-932.85-1.574c.788-1.276 5.237-1.42 5.236-.17 0 .487-1.326.963-2.945 1.056-1.62.093-2.65-.305-2.291-.886zm-23.356-11.383c-1.888-2.167-1.614-5.026.483-5.026.672 0 .95 1.037.618 2.305-.332 1.268.005 2.524.748 2.791.743.267 1.038.827.655 1.245-.383.418-1.51-.174-2.504-1.315zm6.861-9.278c-.42-1.096-.498-2.258-.174-2.582.325-.325.935.305 1.355 1.4.42 1.096.499 2.258.174 2.583-.325.325-.935-.306-1.355-1.401zm-7.401-1.063c0-.975 1.012-1.772 2.25-1.772 2 0 2.052.197.477 1.772-.974.974-1.986 1.771-2.25 1.771-.262 0-.477-.797-.477-1.771zm990.525-25.893c0-.925-1.29-3.215-2.867-5.089-3.743-4.448-2.417-7.417 2.016-4.513 3.186 2.088 4.852 6.354 3.676 9.417-.891 2.323-2.825 2.45-2.825.185zm-916.511-7.108c0-.286.531-.849 1.18-1.25.65-.402 1.182-.167 1.182.52 0 .688-.532 1.251-1.181 1.251-.65 0-1.181-.234-1.181-.52zm923.093-1.451c-.765-1.996 1.042-3.882 3.753-3.915 1.876-.023 1.911 2.617.059 4.47-1.926 1.926-2.915 1.782-3.812-.555zm10.791-4.311c-2.293-3.5-5.532-3.98-12.948-1.921-3.015.837-5.092.847-6.496.03-1.134-.662-1.439-1.219-.677-1.238.762-.02 2.987-1.384 4.944-3.03 2.525-2.125 4.375-2.79 6.37-2.289 2.114.53 4.396-.485 9.195-4.09 9.344-7.021 10.189-9.235 6.387-16.737-3.648-7.2-2.632-9.518 2.775-6.325 3.935 2.324 7.642 8.982 6.565 11.79-.388 1.01.19 4.18 1.285 7.046 1.548 4.054 1.695 5.759.662 7.689-1.517 2.834-5.739 4.729-10.538 4.729-2.69 0-3.494.69-4.373 3.755l-1.077 3.755-2.074-3.164zm-478.463-4.032c-1.41-1.41-.66-2.677 1.584-2.677 1.26 0 2.62-.531 3.022-1.18 1.098-1.777 2.97-1.42 2.26.43-.729 1.899-5.842 4.451-6.866 3.427zm-40.275-2.043l-3.543-1.623 4.724-.08c5.884-.099 10.219 1.005 9.366 2.385-.95 1.537-6.48 1.18-10.547-.682zm-47.71-11.782c-4.728-2.42-4.95-2.722-2.483-3.367 2.956-.773 9.497.188 9.363 1.376-.045.406-.444 1.618-.886 2.694-.725 1.768-1.3 1.7-5.995-.703zm-23.674-12.778c-1.022-2.932-.942-4.054.387-5.383 2.401-2.401 4.267-.713 4.267 3.86 0 5.401-2.964 6.371-4.654 1.523zm-27.695.981c.838-2.183 4.431-2.552 3.708-.38-.27.811-1.375 1.647-2.456 1.857-1.37.265-1.75-.181-1.252-1.477zm617.112-13.48c-2.162-3.037-2.221-3.596-.625-5.876 1.569-2.239 1.563-2.91-.053-6.034-2.657-5.138-2.283-5.449 2.324-1.934 2.278 1.737 6.773 3.94 9.989 4.895 6.645 1.973 8.249 3.523 4.784 4.622-1.308.415-2.38 1.527-2.38 2.47 0 1.284-.814 1.506-3.247.883-6.232-1.594-8.003-1.205-7.603 1.672.49 3.525-.305 3.35-3.189-.698zm-587.52 1.387c-1.369-1.37-.853-3.659.985-4.364 1.28-.491 1.772.13 1.772 2.236 0 2.835-1.156 3.728-2.756 2.128zm580.026-24.9c-1.002-1.138-3.417-5.258-5.367-9.156-1.95-3.9-7.105-11.059-11.455-15.91-4.86-5.422-7.33-9.016-6.407-9.324.827-.275 2.6.96 3.94 2.745 3.25 4.327 7.252 8.084 13.566 12.737 5.233 3.857 7.821 7.427 4.444 6.13-3.894-1.493-2.922 2.053 2.118 7.727 2.937 3.308 5.341 6.263 5.341 6.566 0 1.436-4.565.317-6.18-1.516zm-864.27-2.068c0-.974.515-1.771 1.144-1.771.63 0 .838.797.464 1.771-.373.975-.888 1.772-1.144 1.772-.255 0-.464-.797-.464-1.772zm-6.171-3.811l-4.4-.462 8.28-8.198c4.553-4.508 8.874-8.198 9.602-8.198.768 0 .538.868-.548 2.068-2.46 2.717-.782 5.77 3.71 6.756 1.962.431 3.918 1.934 4.673 3.593 1.213 2.661 1.007 2.932-3.085 4.069-4.293 1.192-9.417 1.297-18.232.372zm-287.79-8.473c-4.092-3.822-4.548-5.432-1.835-6.473 2.43-.933 6.914 2.107 8.614 5.838 1.783 3.914 1.752 4.061-.874 4.061-1.23 0-3.888-1.542-5.906-3.426zm520.137-6.001c1.299-.64 3.855-1.704 5.68-2.363 4.023-1.45 3.356-2.997-1.731-4.014-3.49-.698-3.613-.875-1.616-2.336 1.189-.869 1.815-2.14 1.392-2.825-.433-.7.782-1.786 2.772-2.48 1.948-.679 3.542-1.759 3.542-2.4 0-2.728-2.462-7.317-3.83-7.139-3.153.412-4.614-.144-4.105-1.562.29-.812.05-2.407-.534-3.543-1.52-2.956 1.973-9.07 5.22-9.136.488-.009.754.634.591 1.43-.162.797.952 1.638 2.477 1.87l2.772.42-2.649 2.82-2.648 2.819 2.985 1.135c3.205 1.218 6.294 5.188 9.44 12.13 1.506 3.326 2.497 4.196 4.256 3.736 3.61-.944 4.038 1.502.652 3.72-2.294 1.504-2.73 2.35-1.725 3.355s-.976 1.68-7.846 2.67c-5.055.73-11.05 1.672-13.324 2.093-3.162.585-3.578.491-1.772-.4zm-19.918-6.524c-.404-1.053.057-3.445 1.024-5.316 1.11-2.146 1.325-3.67.583-4.129-2.047-1.265-1.28-2.879 1.727-3.633 1.597-.401 3.523-1.474 4.278-2.385 1.574-1.896 8.85-2.245 9.942-.477.4.649-.1 2.361-1.111 3.806-1.012 1.445-1.84 4.04-1.84 5.768 0 2.634-.81 3.421-5.02 4.882-2.76.959-5.88 2.115-6.934 2.57-1.235.534-2.175.148-2.649-1.086zm21.69-11.734c0-.287.53-.85 1.18-1.251.65-.402 1.181-.167 1.181.52 0 .689-.531 1.252-1.18 1.252-.65 0-1.182-.235-1.182-.521zm-524.16-5.691c-1.158-1.394-1.084-2.044.368-3.249 2.4-1.992 3.59-.64 2.194 2.49-.964 2.16-1.314 2.263-2.563.759zm-1.848-8.882c-.399-.646.067-1.83 1.034-2.633 1.92-1.594 2.321-.344.707 2.203-.617.974-1.3 1.142-1.74.43zm-76.34-.754c0-.83 3.582-2.284 8.662-3.515 1.926-.466 3.065-.354 2.682.266-.365.591-2.137 1.373-3.937 1.736-1.8.363-4.203 1.02-5.34 1.46-1.136.44-2.066.464-2.066.053zm701.852-13.28c-2.179-.88-1.793-2.235.69-2.422 1.19-.09 2.165.595 2.165 1.52 0 1.759-.41 1.888-2.855.902zm-259.54-6.037c-7.474-4.076-11.047-10.338-8.881-15.566 1.025-2.474 1.056-4.03.116-5.786-1.955-3.655.596-7.937 7.122-11.953 3.1-1.907 6.194-4.511 6.877-5.787 1.892-3.535.207-9.593-3.086-11.093-1.666-.76-2.573-1.96-2.205-2.919.839-2.185-3.093-9.647-7.01-13.304-2.882-2.69-4.122-2.959-13.992-3.023-13.44-.088-15.945-.835-15.722-4.692.092-1.602.447-2.913.79-2.913.341 0 5.124-.555 10.629-1.232 7.028-.865 13.33-2.648 21.163-5.988 12.13-5.173 13.053-5.274 41.993-4.594 9.139.215 17.546-.461 28.346-2.28 10.058-1.694 17.458-2.332 21.454-1.85 3.396.408 8.312.138 11.088-.61 6.44-1.733 23.176.353 29.758 3.71 3.891 1.986 5.95 2.248 12.516 1.594 7.093-.706 7.629-.613 5.497.953-1.3.954-5.286 2.12-8.858 2.59-7.753 1.02-14.877 6.546-12.989 10.075.815 1.521.23 2.82-2.402 5.343-1.914 1.833-3.76 4.216-4.102 5.294-.822 2.591-11.263 7.413-16.44 7.593-5.75.2-6.352 1.422-1.905 3.871 2.1 1.157 5.167 3.129 6.814 4.381l2.995 2.278-2.707 1.001c-2.076.768-3.76.273-7.214-2.12-4.687-3.249-9.73-3.265-7.04-.023 1.05 1.264.797 1.755-1.166 2.268-4.39 1.148-1.285 3.418 3.556 2.6 3.08-.52 4.813-.246 5.777.915 1.146 1.38-.35 2.02-8.951 3.828-5.68 1.194-13.25 2.215-16.823 2.268-6.637.1-11.42 2.005-18.456 7.352-2.295 1.744-7.17 3.472-12.876 4.564-11.925 2.281-15.954 4.92-23.14 15.151-5.77 8.218-9.25 11.281-12.85 11.31-.974.008-4.428-1.435-7.676-3.206zm-83.744-7.9c-2.536-1.558-5.644-4.464-6.907-6.458-2.464-3.893-4.737-4.388-11.391-2.48-2.253.647-4.78.709-5.791.143-3.498-1.957 2.82-3.882 9.855-3.003 5.351.669 6.54.478 7.164-1.148 1.254-3.267 6.992-5.608 10.182-4.155 1.964.895 3.75.87 6.258-.087 3.375-1.288 3.421-1.404 1.217-3.023-1.26-.926-2.7-1.683-3.198-1.683-.498 0-2.296-2.373-3.996-5.273-1.7-2.9-4.884-6.382-7.078-7.737-3.728-2.304-4.22-2.345-7.555-.62-2.915 1.507-4.6 1.612-9.212.577-3.104-.697-7.438-.932-9.631-.522-3.805.712-10.776-1.15-10.776-2.878 0-3.174 10.003-10.297 15.944-11.354l4.725-.84-3.377 3.597c-4.659 4.964-2.907 7.248 2.152 2.806 2.145-1.884 5.854-3.792 8.24-4.24 3.648-.684 5.21-.238 9.79 2.796 6.093 4.036 6.563 4.144 9.999 2.305 2.07-1.107 2.837-.803 5.084 2.015 1.554 1.95 5.025 4.072 8.41 5.143 5.394 1.707 5.763 2.078 5.763 5.798 0 2.79.805 4.551 2.7 5.906 7.926 5.668 7.753 5.434 6.038 8.18-2.352 3.766-4.209 4.039-9.413 1.384-3.62-1.848-5.203-2.1-7.025-1.125-2.23 1.193-2.254 1.448-.459 4.92 1.473 2.85 1.608 4.288.607 6.486-1.234 2.708-1.43 2.75-4.78 1.017-6.587-3.406-11.022-1.164-4.878 2.465 1.925 1.137 3.231 2.501 2.904 3.032-1.144 1.85-6.988.869-11.565-1.943zm242.598 1.53c0-.541.797-.984 1.772-.984.974 0 1.771.443 1.771.984 0 .541-.797.984-1.771.984-.975 0-1.772-.443-1.772-.984zm-287.13-6.352c-2.328-1.224-4.136-1.329-7.397-.428-5.544 1.53-7.483.41-4.67-2.698 3.602-3.98 6.045-4.762 10.388-3.329 4.89 1.614 7.06 4.012 5.74 6.344-.84 1.487-1.414 1.503-4.06.111zm234.572-.537c-1.948-1.282-4.429-2.05-5.512-1.707-1.491.472-1.822.062-1.364-1.689.702-2.687 11.08-6.565 14.587-5.452 1.223.389 4.35.07 6.947-.709 4.078-1.222 5.159-1.13 7.916.677l3.193 2.092-2.844 2.216c-2.4 1.871-6.853 3.494-17.608 6.42-.974.264-3.366-.567-5.315-1.848zm-320.66-22.048c-1.625-.257-5.58-1.646-8.792-3.087l-5.838-2.62 8.2-.591c4.51-.325 8.201-1.122 8.201-1.772 0-.65-3.189-1.466-7.086-1.814-5.146-.46-6.117-.783-3.544-1.18 4.308-.667 4.619-2.533.59-3.55-2.9-.733-2.878-.778 1.202-2.536 7.07-3.046 14.602-3.63 21.275-1.648 5.479 1.627 6.335 1.62 8.918-.073 1.826-1.196 2.91-1.397 3.005-.555.08.725.214 1.937.295 2.695.274 2.559 2.63 2.228 5.441-.765 2.602-2.77 7.113-4.097 7.103-2.09-.002.488-1.053 2.607-2.335 4.709l-2.33 3.822 3.811 1.988 3.811 1.989-6.257 2.856c-5.647 2.577-6.806 2.725-11.867 1.51-4.908-1.177-6.316-1.042-11.261 1.078-5.586 2.394-6.763 2.547-12.543 1.634zm47.368-.832c-1.067-1.286-.627-1.918 2.13-3.06 1.92-.795 4.672-1.06 6.147-.592 2.558.812 2.499.94-1.39 3.01-4.96 2.643-5.208 2.666-6.887.642zm325.85-5.466c2.29-1.48 3.543-1.48 3.543 0 0 .65-1.196 1.173-2.657 1.163-2.15-.015-2.319-.237-.886-1.163zM860.411 60.5c-6.039-2.385-5.915-2.255-4.158-4.372.822-.99 1.03-1.817.464-1.837-.567-.021.032-.841 1.332-1.823 1.299-.981 2.37-2.16 2.381-2.62.042-1.746 4.85-6.353 8.248-7.901 1.949-.888 6.998-1.889 11.22-2.224 4.223-.335 9.878-.95 12.568-1.365 2.863-.442 5.197-.261 5.628.436.837 1.355-.761 1.93-9.928 3.578-9.097 1.634-14.564 4.18-18.165 8.46-3.794 4.51-3.921 7.356-.437 9.786l2.657 1.854-3.543-.053c-1.949-.029-5.669-.892-8.267-1.919zm-618.58-3.424c-1.906-1.905-1.471-2.32 7.667-7.322 10.707-5.862 16.088-6.64 25.692-3.716l5.315 1.618-7.087 1.405c-5.795 1.15-18.077 5.256-27.776 9.289-.99.41-2.698-.16-3.812-1.274zm85.326-1.529c0-.629-1.462-1.982-3.248-3.007l-3.248-1.865 4.349.684c3.09.486 4.628.197 5.315-1 .816-1.423 8.333-4.27 11.33-4.292.504-.004.093 1.586-.914 3.533-2.37 4.585-13.584 9.494-13.584 5.947zm18.388-3.448c-1.692-2.738 9.865-6.976 14.774-5.418 3.578 1.135 1.187 3.087-5.054 4.124-2.792.464-5.954 1.217-7.025 1.674-1.07.456-2.284.285-2.695-.38zm37.713-8.698c-7.795-.62-14.318-1.262-14.496-1.427-1.056-.98 1.578-4.17 4.412-5.343 2.788-1.155 4.072-1.002 7.888.94 3.719 1.893 6.116 2.208 13.026 1.71 4.657-.336 9.972-.23 11.81.236l3.343.846-4.133 2.209c-2.274 1.215-4.931 2.152-5.906 2.083-.974-.07-8.15-.633-15.944-1.254zm339.886-4.826c-5.802-2.97-6.362-4.318-1.805-4.343 1.787-.01 4.046-.592 5.02-1.292 1.532-1.102 1.511-1.192-.151-.665-1.058.335-2.542-.01-3.297-.765-1.045-1.045-1.59-1.026-2.272.077-.631 1.022-1.928 1.143-4.38.409-6.228-1.865-7.616-2.693-7.616-4.543 0-1.566 1.561-1.71 11.22-1.03 7.356.517 11.22.373 11.22-.417 0-2.325 3.277-1.177 4.146 1.453l.878 2.657.523-2.657c.288-1.462 1.283-2.658 2.212-2.658.93 0 1.69-.637 1.69-1.417 0-1.102.315-1.102 1.417 0 .825.825 4.777 1.417 9.449 1.417 8.444 0 10.427 1.51 4.795 3.651-2.926 1.113-8.016.798-13.594-.84-1.137-.334-2.064-.173-2.06.358.008 1.09 6.645 5.099 8.44 5.099.644 0 1.916.746 2.827 1.657 1.422 1.422 1.41 1.752-.084 2.325-.958.367-1.741.094-1.741-.607 0-.825-1.503-.994-4.25-.478-2.976.558-4.008.405-3.442-.511.445-.72.166-2.082-.619-3.028-1.514-1.825-5.862-2.384-5.862-.754 0 .532-1.728 2.877-3.839 5.21l-3.838 4.244-4.987-2.552zm-313.312-2.599c-2.048-1.202-4.944-1.55-9.449-1.135-4.21.387-7.447.053-9.2-.95-2.417-1.382-1.826-1.54 5.55-1.48 9.224.075 13.275-1.9 8.28-4.035-2.374-1.015-2.028-1.107 2.04-.543 5.31.735 7.375-.687 4.482-3.089-3.086-2.56.307-3.355 11.285-2.644 6.793.44 11.061.193 12.806-.74 3.343-1.79 2.032-4.067-1.79-3.108-2.64.663-20.967-.425-20.193-1.198.553-.553 26.517-2.958 43.566-4.035 8.843-.559 18.675-1.338 21.85-1.732l5.77-.717-9.527 4.577c-8.932 4.29-23.458 8.473-29.426 8.473-1.453 0-5.63 1.595-9.281 3.544-3.652 1.948-7.373 3.543-8.268 3.543-.895 0-4.758 1.588-8.585 3.528-3.827 1.94-6.957 3.516-6.957 3.501 0-.014-1.33-.806-2.953-1.76zM386.8 25.187c-5.724-1.267-5.934-1.743-1.728-3.923 6.132-3.178 11.934-3.993 14.572-2.046 2.088 1.542 1.967 1.78-2.135 4.2-4.275 2.522-6.01 2.809-10.709 1.769z"/></svg>